<svg xmlns="http://www.w3.org/2000/svg" width="1182" height="1182" viewBox="0 0 1182 1182" version="1.1">
	<path d="M 549.500 61.123 C 439.280 69.556, 336.248 111.681, 249 183.984 C 232.802 197.407, 197.159 233.036, 183.959 249 C 112.062 335.946, 71.002 435.626, 61.415 546.500 C 59.164 572.532, 59.928 626.864, 62.887 651.140 C 70.996 717.669, 87.415 772.378, 116.565 830 C 142.956 882.167, 173.413 924.311, 214.500 965.514 C 304.670 1055.937, 420.230 1109.425, 548.500 1120.111 C 566.696 1121.626, 613.643 1121.628, 631.500 1120.113 C 702.858 1114.060, 764.021 1097.167, 826 1066.394 C 859.548 1049.737, 886.040 1033.188, 915.500 1010.485 C 933.516 996.602, 943.723 987.597, 962.900 968.672 C 1006.990 925.162, 1039.024 880.874, 1066.460 825.500 C 1087.764 782.501, 1101.944 741.016, 1110.894 695.500 C 1114.009 679.660, 1117.375 658.041, 1116.813 657.480 C 1116.630 657.297, 1114.006 658.811, 1110.981 660.844 C 1100.708 667.749, 1085.616 670.773, 1070.737 668.908 C 1056.114 667.074, 1047.009 663.118, 1034.646 653.228 L 1027.791 647.745 1037.627 637.873 C 1043.036 632.443, 1047.849 628, 1048.322 628 C 1048.795 628, 1051.054 629.602, 1053.341 631.560 C 1060.453 637.649, 1069.381 641.430, 1077.628 641.846 C 1086.078 642.273, 1091.185 640.851, 1093.984 637.293 C 1098.892 631.054, 1094.695 624.125, 1084.163 621.076 C 1080.498 620.015, 1072.627 617.753, 1066.671 616.048 C 1047.900 610.676, 1038.303 604.405, 1033.347 594.276 C 1030.964 589.407, 1030.571 587.379, 1030.571 579.958 C 1030.571 572.232, 1030.916 570.614, 1033.810 564.735 C 1041.628 548.854, 1058.341 540, 1080.500 540 C 1092.897 540, 1099.891 541.679, 1111.288 547.393 L 1120.077 551.798 1119.459 545.649 C 1112.068 472.040, 1095.951 414.677, 1065.613 354 C 1045.865 314.503, 1025.546 283.479, 996.189 248 C 983.416 232.564, 946.655 196.088, 930.168 182.493 C 877.096 138.729, 819.639 106.905, 755.727 85.875 C 716.798 73.065, 672.378 64.285, 630.050 61.033 C 614.484 59.837, 565.594 59.892, 549.500 61.123 M 987.239 479.335 C 982.342 481.111, 977.262 485.581, 974.785 490.295 C 971.460 496.618, 971.636 506.031, 975.192 512.078 C 979.294 519.057, 984.935 522.349, 993.591 522.818 C 1003.153 523.336, 1008.166 520.755, 1014.803 511.893 C 1016.887 509.112, 1017.935 500.887, 1016.855 495.801 C 1014.084 482.761, 999.756 474.795, 987.239 479.335 M 513.402 539.956 C 481.014 544.963, 458.727 574.846, 461.380 609.706 C 463.551 638.230, 481.892 660.561, 509 667.689 C 518.108 670.083, 535.050 669.836, 545.144 667.162 C 557.589 663.864, 570.784 656.036, 575.680 649.046 C 577.215 646.855, 576.993 646.528, 567.442 636.942 L 557.627 627.089 553.238 631.134 C 534.745 648.181, 502.025 641.660, 495.481 619.624 C 494.670 616.894, 494.118 614.560, 494.253 614.437 C 494.561 614.159, 551.942 613.091, 569.392 613.039 L 582.284 613 581.743 599.750 C 581.316 589.296, 580.656 584.795, 578.612 578.422 C 572.580 559.610, 558.714 546.403, 540 541.645 C 532.736 539.798, 519.758 538.974, 513.402 539.956 M 653 541.469 C 645.515 543.615, 642.735 544.962, 637.250 549.102 L 632 553.065 632 548.032 L 632 543 615.500 543 L 599 543 599 604.500 L 599 666 616 666 L 633 666 633.010 627.250 C 633.019 588.770, 633.036 588.465, 635.351 583.493 C 643.486 566.024, 666.212 565.405, 675.309 582.405 C 677.442 586.392, 677.508 587.553, 677.803 626.250 L 678.106 666 694.553 666 L 711 666 710.988 622.750 C 710.979 588.461, 710.680 578.388, 709.547 574.131 C 703.840 552.689, 686.808 539.807, 664.540 540.089 C 660.668 540.139, 655.475 540.759, 653 541.469 M 772.275 541.539 C 743.890 549.184, 725.100 577.457, 727.349 609.137 C 729.326 636.985, 745.782 658.335, 771.722 666.704 C 778.281 668.820, 781.381 669.210, 791.500 669.192 C 811.462 669.155, 825.419 664.231, 837.226 653.059 L 843.500 647.122 833.563 637.106 L 823.627 627.089 819.238 631.134 C 816.825 633.359, 812.296 636.376, 809.175 637.840 C 804.191 640.176, 802.283 640.496, 793.500 640.463 C 785.419 640.434, 782.594 640.012, 778.780 638.262 C 769.461 633.987, 761.359 624.343, 760.763 616.814 C 760.444 612.797, 755.533 613.178, 808.883 613.076 L 848.265 613 847.727 600.250 C 846.846 579.412, 842.216 567.136, 831.033 555.987 C 823.314 548.291, 816.959 544.675, 806.415 541.978 C 797.160 539.611, 780.240 539.394, 772.275 541.539 M 896.112 541.526 C 883.015 545.182, 871.549 554.109, 866.348 564.699 C 863.823 569.843, 863.501 571.576, 863.505 580 C 863.509 588.381, 863.827 590.103, 866.207 594.623 C 871.916 605.463, 882.481 611.765, 904.762 617.618 C 919.770 621.560, 925.039 623.789, 927.434 627.209 C 932.667 634.680, 925.315 642, 912.577 642 C 904.855 642, 897.126 639.380, 890.261 634.435 C 879.646 626.789, 882.169 626.379, 870.866 637.589 L 860.874 647.500 865.857 652 C 880.362 665.096, 899.992 671.282, 919.858 669.016 C 937.825 666.967, 950.700 658.842, 957.620 645.184 C 960.223 640.047, 960.500 638.537, 960.499 629.500 C 960.499 620.573, 960.209 618.952, 957.805 614.392 C 954.376 607.891, 946.546 600.840, 938.483 596.992 C 935.020 595.339, 925.298 592.178, 916.879 589.968 C 900.978 585.794, 897.837 584.433, 895.944 580.895 C 894.320 577.861, 895.661 572.412, 898.600 570.100 C 907.328 563.234, 922.703 565.704, 934.922 575.935 L 939.646 579.890 950.073 569.415 L 960.500 558.940 956.500 555.548 C 950.647 550.586, 942.899 546.090, 935.242 543.213 C 929.500 541.056, 926.497 540.631, 915 540.351 C 905.179 540.111, 900.032 540.432, 896.112 541.526 M 360.788 542.490 C 339.439 547.896, 320.684 567.180, 315.557 589 C 313.562 597.490, 313.549 614.824, 315.532 622.540 C 318.546 634.270, 323.386 642.645, 332.272 651.507 C 341.970 661.178, 350.755 665.912, 363.906 668.555 C 379.175 671.624, 392.073 668.742, 405.370 659.292 L 410.239 655.831 409.810 665.666 C 409.323 676.829, 407.530 681.447, 401.352 687.447 C 395.566 693.066, 388.346 696.097, 379.266 696.719 C 366.360 697.604, 355.400 694.127, 344.878 685.809 L 339.766 681.769 329.360 692.134 C 323.637 697.835, 319.080 703.158, 319.234 703.961 C 319.740 706.615, 331.349 715.148, 340.500 719.595 C 354.198 726.250, 360.017 727.500, 377 727.435 C 389.961 727.386, 392.357 727.095, 399.578 724.701 C 419.895 717.963, 435.082 701.300, 441.686 678.500 C 443.240 673.135, 443.460 665.641, 443.760 607.725 L 444.095 542.950 427.797 543.225 L 411.500 543.500 411.199 548.712 L 410.898 553.923 405.932 550.356 C 394.933 542.453, 374.793 538.944, 360.788 542.490 M 978.691 543.643 C 978.311 544.023, 978 571.708, 978 605.167 L 978 666 995.008 666 L 1012.015 666 1011.758 604.750 L 1011.500 543.500 995.441 543.226 C 986.608 543.076, 979.070 543.263, 978.691 543.643 M 1069.212 567.923 C 1061.515 571.537, 1060.152 580.249, 1066.622 584.488 C 1067.952 585.360, 1075.672 587.814, 1083.777 589.942 C 1100.846 594.422, 1108.331 597.500, 1115.708 603.069 L 1121 607.065 1121 586.307 L 1121 565.550 1113.750 572.704 L 1106.500 579.858 1102.150 575.954 C 1092.497 567.292, 1078.054 563.770, 1069.212 567.923 M 512.453 568.326 C 507.020 570.419, 502.321 573.916, 499.790 577.749 C 497.379 581.400, 494.448 588.801, 495.150 589.464 C 495.343 589.646, 507.538 589.963, 522.250 590.170 L 549 590.545 549 587.969 C 549 584.072, 544.203 575.257, 540.578 572.492 C 538.810 571.143, 535.424 569.355, 533.056 568.520 C 528.025 566.745, 516.830 566.640, 512.453 568.326 M 777.825 568.400 C 769.811 571.262, 761 581.809, 761 588.540 C 761 590.679, 761.115 590.689, 788 590.901 L 815 591.114 815 588.253 C 815 584.111, 810.314 575.342, 806.578 572.492 C 804.810 571.143, 801.424 569.355, 799.056 568.520 C 793.821 566.673, 782.836 566.611, 777.825 568.400 M 372.344 573 C 362.592 575.026, 353.648 581.945, 349.280 590.839 C 346.858 595.771, 346.503 597.659, 346.520 605.500 C 346.543 616.058, 348.798 621.844, 355.502 628.552 C 362.323 635.377, 367.898 637.500, 379 637.500 C 390.041 637.500, 395.068 635.611, 402.041 628.844 C 408.515 622.562, 411.498 615.191, 411.499 605.479 C 411.500 598.425, 411.102 596.650, 408.200 590.755 C 401.635 577.419, 386.690 570.019, 372.344 573" stroke="none" fill="black" fill-rule="evenodd"/>
</svg>