<svg width="35" height="35" viewBox="0 0 35 35" fill="none" xmlns="http://www.w3.org/2000/svg">
<path d="M3.7974 18.6961C3.23868 18.6961 2.70284 18.4741 2.30776 18.0791C1.91269 17.684 1.69073 17.1481 1.69073 16.5894V6.0561C1.69073 4.93866 2.13464 3.86698 2.92479 3.07683C3.71494 2.28668 4.78662 1.84277 5.90406 1.84277H29.0774C30.1948 1.84277 31.2665 2.28668 32.0566 3.07683C32.8468 3.86698 33.2907 4.93866 33.2907 6.0561V16.5894C33.2907 17.1481 33.0687 17.684 32.6737 18.0791C32.2786 18.4741 31.7427 18.6961 31.184 18.6961" stroke="#F58025" stroke-width="2.10666" stroke-linecap="round" stroke-linejoin="round"/>
<path d="M1.69037 14.4824H33.2903" stroke="#F58025" stroke-width="2.10666" stroke-linecap="round" stroke-linejoin="round"/>
<path d="M28.0238 6.58301C28.128 6.58301 28.2298 6.6139 28.3164 6.67177C28.403 6.72964 28.4705 6.81189 28.5104 6.90813C28.5502 7.00436 28.5607 7.11026 28.5403 7.21242C28.52 7.31458 28.4699 7.40843 28.3962 7.48208C28.3226 7.55574 28.2287 7.6059 28.1265 7.62622C28.0244 7.64654 27.9185 7.63611 27.8222 7.59625C27.726 7.55639 27.6438 7.48888 27.5859 7.40227C27.528 7.31566 27.4971 7.21384 27.4971 7.10967C27.4971 6.96999 27.5526 6.83603 27.6514 6.73726C27.7502 6.6385 27.8841 6.58301 28.0238 6.58301Z" stroke="#F58025" stroke-width="2.10666" stroke-linecap="round" stroke-linejoin="round"/>
<path d="M8.0102 20.8027V25.0161C8.0102 26.1335 7.5663 27.2052 6.77615 27.9953C5.98599 28.7855 4.91432 29.2294 3.79688 29.2294" stroke="#F58025" stroke-width="2.10666" stroke-linecap="round" stroke-linejoin="round"/>
<path d="M14.3304 20.8027V31.3361C14.3304 31.8948 14.1085 32.4306 13.7134 32.8257C13.3183 33.2208 12.7825 33.4427 12.2238 33.4427" stroke="#F58025" stroke-width="2.10666" stroke-linecap="round" stroke-linejoin="round"/>
<path d="M26.9703 20.8027V25.0161C26.9703 26.1335 27.4142 27.2052 28.2043 27.9953C28.9945 28.7855 30.0662 29.2294 31.1836 29.2294" stroke="#F58025" stroke-width="2.10666" stroke-linecap="round" stroke-linejoin="round"/>
<path d="M20.6504 20.8027V31.3361C20.6504 31.8948 20.8723 32.4306 21.2674 32.8257C21.6625 33.2208 22.1983 33.4427 22.7571 33.4427" stroke="#F58025" stroke-width="2.10666" stroke-linecap="round" stroke-linejoin="round"/>
</svg>
