<svg width="38" height="38" viewBox="0 0 38 38" fill="none" xmlns="http://www.w3.org/2000/svg">
<g filter="url(#filter0_d_501_999)">
<path d="M4.39484 12.2527C4.95994 12.3254 5.57049 12.9583 6.23254 13.8486C6.33354 14.0182 6.43454 14.1933 6.53554 14.374C7.95207 16.9329 9.04136 20.5714 11.0503 22.1884C17.7769 27.606 24.0096 10.7673 31.4164 23.3998C34.8387 18.3526 34.8613 11.7368 31.4736 6.66641C28.086 1.59604 21.9631 -0.918543 15.9871 0.306315C10.0111 1.53117 5.37277 6.25142 4.25546 12.2451C4.29732 12.2419 4.33935 12.2419 4.38121 12.2451L4.39484 12.2527Z" fill="url(#paint0_radial_501_999)"/>
<path d="M4.00293 15.0097C4.00293 23.2884 10.718 29.9996 19.0015 29.9996C27.2849 29.9996 34 23.2884 34 15.0097C34 12.8006 31.9957 6.48364 27.0219 6.48364C21.4361 6.48364 19.2863 20.7952 13.0248 20.7952C9.24939 20.7952 6.41027 12.1647 4.26048 12.2479C4.10372 13.1606 4.01761 14.0839 4.00293 15.0097Z" fill="url(#paint1_radial_501_999)"/>
<path d="M6.53848 14.3757C6.43748 14.195 6.33648 14.0198 6.23548 13.8502C5.51737 12.8903 4.85834 12.221 4.25537 12.2453C4.94318 12.218 5.70068 13.1265 6.53848 14.3757Z" fill="url(#paint2_radial_501_999)"/>
<path d="M4.39551 12.2527C5.04544 12.342 5.75901 13.2111 6.53924 14.3725C6.43824 14.1918 6.33724 14.0167 6.23624 13.8471C5.57115 12.9583 4.9606 12.3269 4.39551 12.2527Z" fill="url(#paint3_radial_501_999)"/>
<path d="M4.38112 12.2513C4.33926 12.2481 4.29723 12.2481 4.25537 12.2513C4.29722 12.2479 4.33927 12.2479 4.38112 12.2513Z" fill="url(#paint4_radial_501_999)"/>
<path d="M4.38112 12.2513C4.33926 12.2481 4.29723 12.2481 4.25537 12.2513C4.29722 12.2479 4.33927 12.2479 4.38112 12.2513Z" fill="url(#paint5_radial_501_999)"/>
<path d="M31.3911 23.4482L31.4197 23.4075L31.3911 23.4482Z" fill="url(#paint6_radial_501_999)"/>
<path d="M31.3911 23.4482L31.4197 23.4075L31.3911 23.4482Z" fill="url(#paint7_radial_501_999)"/>
<path d="M11.0536 22.1887C9.04468 20.5716 7.95539 16.9346 6.53886 14.3743C5.75864 13.2099 5.04658 12.3423 4.39513 12.2545H4.3815C4.33965 12.2511 4.2976 12.2511 4.25575 12.2545C3.43563 16.637 4.61008 21.157 7.46018 24.5869C10.3103 28.0169 14.5402 30.0009 19.0013 30.0001C19.1528 30.0001 19.2967 30.0001 19.4421 30.0001H19.58L19.883 29.985L20.0345 29.9759L20.3375 29.9517L20.4739 29.9395C20.6132 29.9259 20.7541 29.9108 20.892 29.8926H20.9041C21.0465 29.8744 21.1889 29.8532 21.3314 29.832L21.4601 29.8108L21.7631 29.7594L21.9146 29.7321L22.2055 29.6715L22.3373 29.6428C22.4686 29.6135 22.5989 29.5822 22.7282 29.5489H22.7494C22.8857 29.5141 23.0221 29.4762 23.1584 29.4368L23.2812 29.4005L23.566 29.3127L23.7054 29.2673L23.9826 29.1734L24.1084 29.1295C24.2316 29.0851 24.3543 29.0391 24.4765 28.9917L24.4992 28.9826C24.6295 28.9311 24.7588 28.8781 24.8871 28.8236L24.9992 28.7752L25.2719 28.6525L25.4007 28.592L25.6628 28.4648L25.7794 28.4072C25.8935 28.3497 26.0067 28.2907 26.1188 28.2301L26.146 28.2149C26.2682 28.1483 26.3889 28.0802 26.5081 28.0105L26.6096 27.95L26.8672 27.7986L26.9853 27.7244L27.2308 27.573L27.3383 27.5018C27.4393 27.4321 27.5429 27.361 27.6489 27.2883L27.6777 27.2686C27.7908 27.1889 27.9024 27.1071 28.0125 27.0233L28.1034 26.9537L28.3413 26.7674L28.4488 26.6811L28.6731 26.4949L28.77 26.4131C28.864 26.3324 28.9569 26.2506 29.0488 26.1678L29.0791 26.1406C29.1801 26.0477 29.2811 25.9533 29.3821 25.8574L29.4624 25.7802C29.5351 25.7096 29.6068 25.6384 29.6775 25.5667L29.773 25.4698L29.9729 25.2594L30.0593 25.1655C30.1411 25.0756 30.2219 24.9853 30.3017 24.8945L30.3335 24.8581C30.4244 24.7572 30.5133 24.6517 30.6001 24.5417L30.6698 24.4553C30.7335 24.3766 30.7966 24.2974 30.8592 24.2176L30.9425 24.1086C31.0011 24.0319 31.0587 23.9547 31.1152 23.877L31.1925 23.771C31.2612 23.6751 31.3289 23.5782 31.3955 23.4802L31.4243 23.4394C24.0114 10.7706 17.7802 27.6063 11.0536 22.1887Z" fill="url(#paint8_radial_501_999)"/>
<path d="M11.0536 22.1887C9.04468 20.5716 7.95539 16.9346 6.53886 14.3743C5.75864 13.2099 5.04658 12.3423 4.39513 12.2545H4.3815C4.33965 12.2511 4.2976 12.2511 4.25575 12.2545C3.43563 16.637 4.61008 21.157 7.46018 24.5869C10.3103 28.0169 14.5402 30.0009 19.0013 30.0001C19.1528 30.0001 19.2967 30.0001 19.4421 30.0001H19.58L19.883 29.985L20.0345 29.9759L20.3375 29.9517L20.4739 29.9395C20.6132 29.9259 20.7541 29.9108 20.892 29.8926H20.9041C21.0465 29.8744 21.1889 29.8532 21.3314 29.832L21.4601 29.8108L21.7631 29.7594L21.9146 29.7321L22.2055 29.6715L22.3373 29.6428C22.4686 29.6135 22.5989 29.5822 22.7282 29.5489H22.7494C22.8857 29.5141 23.0221 29.4762 23.1584 29.4368L23.2812 29.4005L23.566 29.3127L23.7054 29.2673L23.9826 29.1734L24.1084 29.1295C24.2316 29.0851 24.3543 29.0391 24.4765 28.9917L24.4992 28.9826C24.6295 28.9311 24.7588 28.8781 24.8871 28.8236L24.9992 28.7752L25.2719 28.6525L25.4007 28.592L25.6628 28.4648L25.7794 28.4072C25.8935 28.3497 26.0067 28.2907 26.1188 28.2301L26.146 28.2149C26.2682 28.1483 26.3889 28.0802 26.5081 28.0105L26.6096 27.95L26.8672 27.7986L26.9853 27.7244L27.2308 27.573L27.3383 27.5018C27.4393 27.4321 27.5429 27.361 27.6489 27.2883L27.6777 27.2686C27.7908 27.1889 27.9024 27.1071 28.0125 27.0233L28.1034 26.9537L28.3413 26.7674L28.4488 26.6811L28.6731 26.4949L28.77 26.4131C28.864 26.3324 28.9569 26.2506 29.0488 26.1678L29.0791 26.1406C29.1801 26.0477 29.2811 25.9533 29.3821 25.8574L29.4624 25.7802C29.5351 25.7096 29.6068 25.6384 29.6775 25.5667L29.773 25.4698L29.9729 25.2594L30.0593 25.1655C30.1411 25.0756 30.2219 24.9853 30.3017 24.8945L30.3335 24.8581C30.4244 24.7572 30.5133 24.6517 30.6001 24.5417L30.6698 24.4553C30.7335 24.3766 30.7966 24.2974 30.8592 24.2176L30.9425 24.1086C31.0011 24.0319 31.0587 23.9547 31.1152 23.877L31.1925 23.771C31.2612 23.6751 31.3289 23.5782 31.3955 23.4802L31.4243 23.4394C24.0114 10.7706 17.7802 27.6063 11.0536 22.1887Z" fill="url(#paint9_radial_501_999)"/>
<path d="M11.0536 22.1887C9.04468 20.5716 7.95539 16.9346 6.53886 14.3743C5.88893 13.2432 5.04658 12.3423 4.39513 12.2545H4.3815C4.33965 12.2511 4.2976 12.2511 4.25575 12.2545C3.43563 16.637 4.61008 21.157 7.46018 24.5869C10.3103 28.0169 14.5402 30.0009 19.0013 30.0001C19.1528 30.0001 19.2967 30.0001 19.4421 30.0001H19.58L19.883 29.985L20.0345 29.9759L20.3375 29.9517L20.4739 29.9395C20.6132 29.9259 20.7541 29.9108 20.892 29.8926H20.9041C21.0465 29.8744 21.1889 29.8532 21.3314 29.832L21.4601 29.8108L21.7631 29.7594L21.9146 29.7321L22.2055 29.6715L22.3373 29.6428C22.4686 29.6135 22.5989 29.5822 22.7282 29.5489H22.7494C22.8857 29.5141 23.0221 29.4762 23.1584 29.4368L23.2812 29.4005L23.566 29.3127L23.7054 29.2673L23.9826 29.1734L24.1084 29.1295C24.2316 29.0851 24.3543 29.0391 24.4765 28.9917L24.4992 28.9826C24.6295 28.9311 24.7588 28.8781 24.8871 28.8236L24.9992 28.7752L25.2719 28.6525L25.4007 28.592L25.6628 28.4648L25.7794 28.4072C25.8935 28.3497 26.0067 28.2907 26.1188 28.2301L26.146 28.2149C26.2682 28.1483 26.3889 28.0802 26.5081 28.0105L26.6096 27.95L26.8672 27.7986L26.9853 27.7244L27.2308 27.573L27.3383 27.5018C27.4393 27.4321 27.5429 27.361 27.6489 27.2883L27.6777 27.2686C27.7908 27.1889 27.9024 27.1071 28.0125 27.0233L28.1034 26.9537L28.3413 26.7674L28.4488 26.6811L28.6731 26.4949L28.77 26.4131C28.864 26.3324 28.9569 26.2506 29.0488 26.1678L29.0791 26.1406C29.1801 26.0477 29.2811 25.9533 29.3821 25.8574L29.4624 25.7802C29.5351 25.7096 29.6068 25.6384 29.6775 25.5667L29.773 25.4698L29.9729 25.2594L30.0593 25.1655C30.1411 25.0756 30.2219 24.9853 30.3017 24.8945L30.3335 24.8581C30.4244 24.7572 30.5133 24.6517 30.6001 24.5417L30.6698 24.4553C30.7335 24.3766 30.7966 24.2974 30.8592 24.2176L30.9425 24.1086C31.0011 24.0319 31.0587 23.9547 31.1152 23.877L31.1925 23.771C31.2612 23.6751 31.3289 23.5782 31.3955 23.4802L31.4243 23.4394C24.0114 10.7706 17.7802 27.6063 11.0536 22.1887Z" fill="url(#paint10_radial_501_999)"/>
</g>
<defs>
<filter id="filter0_d_501_999" x="0" y="0" width="38" height="38" filterUnits="userSpaceOnUse" color-interpolation-filters="sRGB">
<feFlood flood-opacity="0" result="BackgroundImageFix"/>
<feColorMatrix in="SourceAlpha" type="matrix" values="0 0 0 0 0 0 0 0 0 0 0 0 0 0 0 0 0 0 127 0" result="hardAlpha"/>
<feOffset dy="4"/>
<feGaussianBlur stdDeviation="2"/>
<feComposite in2="hardAlpha" operator="out"/>
<feColorMatrix type="matrix" values="0 0 0 0 0 0 0 0 0 0 0 0 0 0 0 0 0 0 0.25 0"/>
<feBlend mode="normal" in2="BackgroundImageFix" result="effect1_dropShadow_501_999"/>
<feBlend mode="normal" in="SourceGraphic" in2="effect1_dropShadow_501_999" result="shape"/>
</filter>
<radialGradient id="paint0_radial_501_999" cx="0" cy="0" r="1" gradientUnits="userSpaceOnUse" gradientTransform="translate(4.25935 12.872) scale(22.819 22.7721)">
<stop stop-color="#F69322"/>
<stop offset="0.21" stop-color="#F69322"/>
<stop offset="1" stop-color="#E9262A"/>
</radialGradient>
<radialGradient id="paint1_radial_501_999" cx="0" cy="0" r="1" gradientUnits="userSpaceOnUse" gradientTransform="translate(5.23525 17.6352) scale(27.2746 27.2186)">
<stop stop-color="#FAAF3A"/>
<stop offset="0.09" stop-color="#FAAA3A"/>
<stop offset="0.2" stop-color="#F89D39"/>
<stop offset="0.31" stop-color="#F68639"/>
<stop offset="0.37" stop-color="#F47738"/>
<stop offset="0.5" stop-color="#F37237"/>
<stop offset="0.65" stop-color="#F26535"/>
<stop offset="0.8" stop-color="#EE4E31"/>
<stop offset="0.96" stop-color="#EA2F2C"/>
<stop offset="1" stop-color="#E9262A"/>
</radialGradient>
<radialGradient id="paint2_radial_501_999" cx="0" cy="0" r="1" gradientUnits="userSpaceOnUse" gradientTransform="translate(50.4693 260.168) scale(411.303 410.458)">
<stop stop-color="#FAAF3A"/>
<stop offset="0.09" stop-color="#FAAA3A"/>
<stop offset="0.2" stop-color="#F89D39"/>
<stop offset="0.31" stop-color="#F68639"/>
<stop offset="0.37" stop-color="#F47738"/>
<stop offset="0.5" stop-color="#F37237"/>
<stop offset="0.65" stop-color="#F26535"/>
<stop offset="0.8" stop-color="#EE4E31"/>
<stop offset="0.96" stop-color="#EA2F2C"/>
<stop offset="1" stop-color="#E9262A"/>
</radialGradient>
<radialGradient id="paint3_radial_501_999" cx="0" cy="0" r="1" gradientUnits="userSpaceOnUse" gradientTransform="translate(32.9351 192.18) scale(322.889 322.226)">
<stop stop-color="#F69322"/>
<stop offset="0.21" stop-color="#F69322"/>
<stop offset="1" stop-color="#E9262A"/>
</radialGradient>
<radialGradient id="paint4_radial_501_999" cx="0" cy="0" r="1" gradientUnits="userSpaceOnUse" gradientTransform="translate(5.94287 12.4816) scale(18.931 0.37588)">
<stop stop-color="#F69322"/>
<stop offset="0.21" stop-color="#F69322"/>
<stop offset="1" stop-color="#E9262A"/>
</radialGradient>
<radialGradient id="paint5_radial_501_999" cx="0" cy="0" r="1" gradientUnits="userSpaceOnUse" gradientTransform="translate(6.95261 12.5746) scale(22.643 0.449582)">
<stop stop-color="#FAAF3A"/>
<stop offset="0.09" stop-color="#FAAA3A"/>
<stop offset="0.2" stop-color="#F89D39"/>
<stop offset="0.31" stop-color="#F68639"/>
<stop offset="0.37" stop-color="#F47738"/>
<stop offset="0.5" stop-color="#F37237"/>
<stop offset="0.65" stop-color="#F26535"/>
<stop offset="0.8" stop-color="#EE4E31"/>
<stop offset="0.96" stop-color="#EA2F2C"/>
<stop offset="1" stop-color="#E9262A"/>
</radialGradient>
<radialGradient id="paint6_radial_501_999" cx="0" cy="0" r="1" gradientUnits="userSpaceOnUse" gradientTransform="translate(32.0023 28.1588) scale(5.14597 7.32467)">
<stop stop-color="#FAAF3A"/>
<stop offset="0.09" stop-color="#FAAA3A"/>
<stop offset="0.2" stop-color="#F89D39"/>
<stop offset="0.31" stop-color="#F68639"/>
<stop offset="0.37" stop-color="#F47738"/>
<stop offset="0.5" stop-color="#F37237"/>
<stop offset="0.65" stop-color="#F26535"/>
<stop offset="0.8" stop-color="#EE4E31"/>
<stop offset="0.96" stop-color="#EA2F2C"/>
<stop offset="1" stop-color="#E9262A"/>
</radialGradient>
<radialGradient id="paint7_radial_501_999" cx="0" cy="0" r="1" gradientUnits="userSpaceOnUse" gradientTransform="translate(33.4432 20.9467) scale(7.04065 10.0215)">
<stop offset="0.04" stop-color="#F47738"/>
<stop offset="0.47" stop-color="#F26830"/>
<stop offset="1" stop-color="#F15B28"/>
</radialGradient>
<radialGradient id="paint8_radial_501_999" cx="0" cy="0" r="1" gradientUnits="userSpaceOnUse" gradientTransform="translate(244.099 1518.72) scale(4130.65 4122.17)">
<stop stop-color="#F69322"/>
<stop offset="0.21" stop-color="#F69322"/>
<stop offset="1" stop-color="#E9262A"/>
</radialGradient>
<radialGradient id="paint9_radial_501_999" cx="0" cy="0" r="1" gradientUnits="userSpaceOnUse" gradientTransform="translate(387.795 2077.07) scale(4940.49 4930.35)">
<stop stop-color="#FAAF3A"/>
<stop offset="0.09" stop-color="#FAAA3A"/>
<stop offset="0.2" stop-color="#F89D39"/>
<stop offset="0.31" stop-color="#F68639"/>
<stop offset="0.37" stop-color="#F47738"/>
<stop offset="0.5" stop-color="#F37237"/>
<stop offset="0.65" stop-color="#F26535"/>
<stop offset="0.8" stop-color="#EE4E31"/>
<stop offset="0.96" stop-color="#EA2F2C"/>
<stop offset="1" stop-color="#E9262A"/>
</radialGradient>
<radialGradient id="paint10_radial_501_999" cx="0" cy="0" r="1" gradientUnits="userSpaceOnUse" gradientTransform="translate(4721.26 1704.36) scale(6764.48 6750.59)">
<stop offset="0.04" stop-color="#F47738"/>
<stop offset="0.47" stop-color="#F26830"/>
<stop offset="1" stop-color="#F15B28"/>
</radialGradient>
</defs>
</svg>
