<svg width="173" height="67" viewBox="0 0 173 67" fill="none" xmlns="http://www.w3.org/2000/svg">
<path d="M136.6 58.2107C136.6 60.0112 137.316 61.738 138.589 63.0111C139.862 64.2843 141.589 64.9995 143.389 64.9995C145.19 64.9995 146.917 64.2843 148.19 63.0111C149.463 61.738 150.178 60.0112 150.178 58.2107C150.178 56.4102 149.463 54.6834 148.19 53.4103C146.917 52.1371 145.19 51.4219 143.389 51.4219C141.589 51.4219 139.862 52.1371 138.589 53.4103C137.316 54.6834 136.6 56.4102 136.6 58.2107V58.2107Z" stroke="#F58025" stroke-width="3.76914" stroke-linecap="round" stroke-linejoin="round"/>
<path d="M82.2895 58.2107C82.2895 60.0112 83.0047 61.738 84.2779 63.0111C85.551 64.2843 87.2778 64.9995 89.0783 64.9995C90.8788 64.9995 92.6056 64.2843 93.8788 63.0111C95.1519 61.738 95.8672 60.0112 95.8672 58.2107C95.8672 56.4102 95.1519 54.6834 93.8788 53.4103C92.6056 52.1371 90.8788 51.4219 89.0783 51.4219C87.2778 51.4219 85.551 52.1371 84.2779 53.4103C83.0047 54.6834 82.2895 56.4102 82.2895 58.2107Z" stroke="#F58025" stroke-width="3.76914" stroke-linecap="round" stroke-linejoin="round"/>
<path d="M136.602 58.2109H95.8686" stroke="#F58025" stroke-width="3.76914" stroke-linecap="round" stroke-linejoin="round"/>
<path d="M82.2907 58.2113H75.5019C73.7014 58.2113 71.9746 57.496 70.7015 56.2229C69.4283 54.9497 68.7131 53.223 68.7131 51.4224V44.6336C68.7131 41.0326 70.1436 37.5791 72.6899 35.0328C75.2362 32.4864 78.6897 31.056 82.2907 31.056L90.5957 14.4414C91.1598 13.3137 92.0268 12.3653 93.0996 11.7026C94.1724 11.0399 95.4085 10.6891 96.6695 10.6895H132.424C133.685 10.6891 134.921 11.0399 135.994 11.7026C137.067 12.3653 137.934 13.3137 138.498 14.4414L146.785 31.056H156.968C160.569 31.056 164.022 32.4864 166.569 35.0328C169.115 37.5791 170.546 41.0326 170.546 44.6336V51.4224C170.546 53.223 169.83 54.9497 168.557 56.2229C167.284 57.496 165.557 58.2113 163.757 58.2113H150.179" stroke="#F58025" stroke-width="3.76914" stroke-linecap="round" stroke-linejoin="round"/>
<path d="M146.783 31.0557H82.2895" stroke="#F58025" stroke-width="3.76914" stroke-linecap="round" stroke-linejoin="round"/>
<path d="M11.3911 2H26.1041C28.4736 2.00211 30.7454 2.93926 32.4209 4.60574C34.0963 6.27221 35.0386 8.53184 35.0407 10.8886V65H2.45447V10.8886C2.45659 8.53184 3.3988 6.27221 5.07428 4.60574C6.74976 2.93926 9.02159 2.00211 11.3911 2V2Z" stroke="#F58025" stroke-width="3.76914" stroke-linecap="round" stroke-linejoin="round"/>
<path d="M20.5708 21.5518L14.4028 33.2425H23.0924L16.645 45.4483" stroke="#F58025" stroke-width="3.76914" stroke-linecap="round" stroke-linejoin="round"/>
<path d="M34.4976 26.4395H38.2993C41.8987 26.4395 44.8165 29.3573 44.8165 32.9567V56.0386C44.8165 59.188 47.3697 61.7412 50.5191 61.7412V61.7412C53.6686 61.7412 56.2217 59.188 56.2217 56.0386V50.8791C56.2217 47.2797 59.1396 44.3619 62.7389 44.3619H69.7993" stroke="#F58025" stroke-width="3.76914"/>
</svg>
