<svg width="375" height="453" viewBox="0 0 375 453" fill="none" xmlns="http://www.w3.org/2000/svg">
<path d="M37 33H338" stroke="white" stroke-linejoin="round" stroke-dasharray="3 3"/>
<path d="M37 73H338" stroke="white" stroke-linejoin="round" stroke-dasharray="3 3"/>
<line x1="37" y1="112.5" x2="338" y2="112.5" stroke="white" stroke-linejoin="round" stroke-dasharray="3 3"/>
<line x1="37" y1="152.5" x2="338" y2="152.5" stroke="white" stroke-linejoin="round" stroke-dasharray="3 3"/>
<line x1="37" y1="192.5" x2="338" y2="192.5" stroke="white" stroke-linejoin="round" stroke-dasharray="3 3"/>
<path d="M36 251H337" stroke="white" stroke-linejoin="round" stroke-dasharray="3 3"/>
<path d="M36 291H337" stroke="white" stroke-linejoin="round" stroke-dasharray="3 3"/>
<line x1="36" y1="330.5" x2="337" y2="330.5" stroke="white" stroke-linejoin="round" stroke-dasharray="3 3"/>
<line x1="36" y1="370.5" x2="337" y2="370.5" stroke="white" stroke-linejoin="round" stroke-dasharray="3 3"/>
<line x1="36" y1="410.5" x2="337" y2="410.5" stroke="white" stroke-linejoin="round" stroke-dasharray="3 3"/>
<rect x="166.5" y="22.5" width="39" height="405" rx="19.5" stroke="white"/>
<path d="M37 148C37 143.582 40.5817 140 45 140C49.4183 140 53 143.582 53 148V193H37V148Z" fill="url(#paint0_linear_611_18101)"/>
<path d="M37 148C37 143.582 40.5817 140 45 140C49.4183 140 53 143.582 53 148V193H37V148Z" stroke="white"/>
<path d="M84 163C84 158.582 87.5817 155 92 155C96.4183 155 100 158.582 100 163V193H84V163Z" fill="url(#paint1_linear_611_18101)"/>
<path d="M84 163C84 158.582 87.5817 155 92 155C96.4183 155 100 158.582 100 163V193H84V163Z" stroke="white"/>
<path d="M131 163C131 158.582 134.582 155 139 155C143.418 155 147 158.582 147 163V193H131V163Z" fill="url(#paint2_linear_611_18101)"/>
<path d="M131 163C131 158.582 134.582 155 139 155C143.418 155 147 158.582 147 163V193H131V163Z" stroke="white"/>
<g filter="url(#filter0_d_611_18101)">
<path d="M178 163C178 158.582 181.582 155 186 155V155C190.418 155 194 158.582 194 163V193H178V163Z" fill="url(#paint3_linear_611_18101)"/>
</g>
<path d="M35 342.5C35 346.918 38.5817 350.5 43 350.5C47.4183 350.5 51 346.918 51 342.5V250.5H35V342.5Z" fill="url(#paint4_linear_611_18101)"/>
<path d="M35 342.5C35 346.918 38.5817 350.5 43 350.5C47.4183 350.5 51 346.918 51 342.5V250.5H35V342.5Z" stroke="white"/>
<path d="M82.6667 315.5C82.6667 319.918 86.2484 323.5 90.6667 323.5C95.085 323.5 98.6667 319.918 98.6667 315.5V250.5H82.6667V315.5Z" fill="url(#paint5_linear_611_18101)"/>
<path d="M82.6667 315.5C82.6667 319.918 86.2484 323.5 90.6667 323.5C95.085 323.5 98.6667 319.918 98.6667 315.5V250.5H82.6667V315.5Z" stroke="white"/>
<path d="M130.333 342.5C130.333 346.918 133.915 350.5 138.333 350.5C142.752 350.5 146.333 346.918 146.333 342.5V250.5H130.333V342.5Z" fill="url(#paint6_linear_611_18101)"/>
<path d="M130.333 342.5C130.333 346.918 133.915 350.5 138.333 350.5C142.752 350.5 146.333 346.918 146.333 342.5V250.5H130.333V342.5Z" stroke="white"/>
<path d="M178 315.5C178 319.918 181.582 323.5 186 323.5C190.418 323.5 194 319.918 194 315.5V250.5H178V315.5Z" fill="url(#paint7_linear_611_18101)"/>
<path d="M178 315.5C178 319.918 181.582 323.5 186 323.5C190.418 323.5 194 319.918 194 315.5V250.5H178V315.5Z" stroke="white"/>
<g filter="url(#filter1_f_611_18101)">
<rect width="61" height="167" transform="matrix(-1 0 0 1 42 48)" fill="url(#paint8_linear_611_18101)"/>
</g>
<path d="M16.4599 188.13H9.61394V186.352C9.61394 184.63 10.7339 183.216 13.0579 183.216C15.3539 183.216 16.4599 184.644 16.4599 186.366V188.13ZM17.9999 186.31C17.9999 183.622 16.2359 181.466 13.0579 181.466C9.86594 181.466 8.07394 183.594 8.07394 186.296V189.81H17.9999V186.31ZM16.1519 180.266C17.2299 180.266 18.2099 179.384 18.2099 177.956C18.2099 176.85 17.6499 176.178 17.1319 175.856C17.6779 175.856 17.9579 175.8 17.9999 175.786V174.274C17.9299 174.288 17.5239 174.358 16.9079 174.358H13.5199C12.1619 174.358 10.9719 175.156 10.9719 177.256C10.9719 178.936 12.0219 180 13.1979 180.126L13.5339 178.642C12.8479 178.572 12.3019 178.096 12.3019 177.242C12.3019 176.346 12.7639 175.954 13.3379 175.954C13.5759 175.954 13.7719 176.066 13.8279 176.458L14.0939 178.208C14.2619 179.37 14.9339 180.266 16.1519 180.266ZM16.9359 177.648C16.9359 178.292 16.5159 178.642 16.0539 178.642C15.4939 178.642 15.2139 178.236 15.1299 177.732L14.8639 175.954H15.1719C16.5019 175.954 16.9359 176.738 16.9359 177.648ZM20.7579 170.487L11.1819 166.147V167.869L15.4939 169.703L11.1819 171.663V173.497L17.1879 170.585L20.7579 172.223V170.487ZM8.92794 155.689V162.465H10.3979V157.593C10.3979 157.593 12.9319 160.757 17.9999 161.149V159.413C13.3239 159.007 11.0279 156.445 10.3979 155.689H8.92794ZM16.1519 154.987C17.2299 154.987 18.2099 154.105 18.2099 152.677C18.2099 151.571 17.6499 150.899 17.1319 150.577C17.6779 150.577 17.9579 150.521 17.9999 150.507V148.995C17.9299 149.009 17.5239 149.079 16.9079 149.079H13.5199C12.1619 149.079 10.9719 149.877 10.9719 151.977C10.9719 153.657 12.0219 154.721 13.1979 154.847L13.5339 153.363C12.8479 153.293 12.3019 152.817 12.3019 151.963C12.3019 151.067 12.7639 150.675 13.3379 150.675C13.5759 150.675 13.7719 150.787 13.8279 151.179L14.0939 152.929C14.2619 154.091 14.9339 154.987 16.1519 154.987ZM16.9359 152.369C16.9359 153.013 16.5159 153.363 16.0539 153.363C15.4939 153.363 15.2139 152.957 15.1299 152.453L14.8639 150.675H15.1719C16.5019 150.675 16.9359 151.459 16.9359 152.369ZM17.9999 145.506H13.9539C13.0859 145.506 12.4419 144.96 12.4419 144.092C12.4419 143.168 13.0579 142.776 13.8419 142.776H17.9999V141.18H13.9539C13.1139 141.18 12.4419 140.62 12.4419 139.766C12.4419 138.856 13.0439 138.45 13.8419 138.45H17.9999V136.882H13.5759C11.7699 136.882 10.9859 138.058 10.9859 139.29C10.9859 140.172 11.2939 140.97 12.1899 141.502C11.3919 141.866 10.9859 142.65 10.9859 143.546C10.9859 144.316 11.3499 145.17 12.0499 145.562H11.1819V147.116H17.9999V145.506ZM14.6259 128.59H13.1839V132.538H14.6259V128.59ZM17.6919 124.414C17.9999 123.952 18.2099 123.056 18.2099 122.314C18.2099 119.234 16.2499 117.666 12.9599 117.666C10.0619 117.666 8.71794 119.36 8.71794 121.25C8.71794 123.154 10.0059 124.666 11.8819 124.666C13.8139 124.666 14.9339 123.168 14.9339 121.53C14.9339 120.452 14.4719 119.654 13.8839 119.318C15.5919 119.402 16.7399 120.424 16.7399 122.328C16.7399 122.93 16.5439 123.602 16.3199 123.952L17.6919 124.414ZM11.8259 119.542C12.8619 119.542 13.5199 120.368 13.5199 121.278C13.5199 122.216 12.8899 123.014 11.8259 123.014C10.8039 123.014 10.1459 122.202 10.1459 121.278C10.1459 120.368 10.8179 119.542 11.8259 119.542ZM20.6599 114.375H17.2299C17.7479 114.025 18.1679 113.283 18.1679 112.303C18.1679 110.343 16.6279 109.097 14.5839 109.097C12.5679 109.097 11.0279 110.231 11.0279 112.247C11.0279 113.297 11.5179 114.081 12.1059 114.417H11.1819V115.985H20.6599V114.375ZM14.5839 110.721C15.8859 110.721 16.7259 111.477 16.7259 112.555C16.7259 113.619 15.8859 114.389 14.5839 114.389C13.3099 114.389 12.4699 113.619 12.4699 112.555C12.4699 111.463 13.3099 110.721 14.5839 110.721ZM17.9999 105.926H13.9539C13.0859 105.926 12.4419 105.38 12.4419 104.512C12.4419 103.588 13.0579 103.196 13.8419 103.196H17.9999V101.6H13.9539C13.1139 101.6 12.4419 101.04 12.4419 100.186C12.4419 99.2759 13.0439 98.8699 13.8419 98.8699H17.9999V97.3019H13.5759C11.7699 97.3019 10.9859 98.4779 10.9859 99.7099C10.9859 100.592 11.2939 101.39 12.1899 101.922C11.3919 102.286 10.9859 103.07 10.9859 103.966C10.9859 104.736 11.3499 105.59 12.0499 105.982H11.1819V107.536H17.9999V105.926Z" fill="white"/>
<g filter="url(#filter2_f_611_18101)">
<rect x="326" y="18" width="71" height="196" fill="url(#paint9_linear_611_18101)"/>
</g>
<g filter="url(#filter3_f_611_18101)">
<rect width="61" height="167" transform="matrix(-1 0 0 1 42 235)" fill="url(#paint10_linear_611_18101)"/>
</g>
<g filter="url(#filter4_f_611_18101)">
<rect width="61" height="200" transform="matrix(-1 0 0 1 392 234)" fill="url(#paint11_linear_611_18101)"/>
</g>
<path d="M16.4599 346.13H9.61394V344.352C9.61394 342.63 10.7339 341.216 13.0579 341.216C15.3539 341.216 16.4599 342.644 16.4599 344.366V346.13ZM17.9999 344.31C17.9999 341.622 16.2359 339.466 13.0579 339.466C9.86594 339.466 8.07394 341.594 8.07394 344.296V347.81H17.9999V344.31ZM16.1519 338.266C17.2299 338.266 18.2099 337.384 18.2099 335.956C18.2099 334.85 17.6499 334.178 17.1319 333.856C17.6779 333.856 17.9579 333.8 17.9999 333.786V332.274C17.9299 332.288 17.5239 332.358 16.9079 332.358H13.5199C12.1619 332.358 10.9719 333.156 10.9719 335.256C10.9719 336.936 12.0219 338 13.1979 338.126L13.5339 336.642C12.8479 336.572 12.3019 336.096 12.3019 335.242C12.3019 334.346 12.7639 333.954 13.3379 333.954C13.5759 333.954 13.7719 334.066 13.8279 334.458L14.0939 336.208C14.2619 337.37 14.9339 338.266 16.1519 338.266ZM16.9359 335.648C16.9359 336.292 16.5159 336.642 16.0539 336.642C15.4939 336.642 15.2139 336.236 15.1299 335.732L14.8639 333.954H15.1719C16.5019 333.954 16.9359 334.738 16.9359 335.648ZM20.7579 328.487L11.1819 324.147V325.869L15.4939 327.703L11.1819 329.663V331.497L17.1879 328.585L20.7579 330.223V328.487ZM17.6919 319.765C17.9999 319.303 18.2099 318.407 18.2099 317.665C18.2099 314.585 16.2499 313.017 12.9599 313.017C10.0619 313.017 8.71794 314.711 8.71794 316.601C8.71794 318.505 10.0059 320.017 11.8819 320.017C13.8139 320.017 14.9339 318.519 14.9339 316.881C14.9339 315.803 14.4719 315.005 13.8839 314.669C15.5919 314.753 16.7399 315.775 16.7399 317.679C16.7399 318.281 16.5439 318.953 16.3199 319.303L17.6919 319.765ZM11.8259 314.893C12.8619 314.893 13.5199 315.719 13.5199 316.629C13.5199 317.567 12.8899 318.365 11.8259 318.365C10.8039 318.365 10.1459 317.553 10.1459 316.629C10.1459 315.719 10.8179 314.893 11.8259 314.893ZM20.6599 309.727H17.2299C17.7479 309.377 18.1679 308.635 18.1679 307.655C18.1679 305.695 16.6279 304.449 14.5839 304.449C12.5679 304.449 11.0279 305.583 11.0279 307.599C11.0279 308.649 11.5179 309.433 12.1059 309.769H11.1819V311.337H20.6599V309.727ZM14.5839 306.073C15.8859 306.073 16.7259 306.829 16.7259 307.907C16.7259 308.971 15.8859 309.741 14.5839 309.741C13.3099 309.741 12.4699 308.971 12.4699 307.907C12.4699 306.815 13.3099 306.073 14.5839 306.073ZM17.9999 301.277H13.9539C13.0859 301.277 12.4419 300.731 12.4419 299.863C12.4419 298.939 13.0579 298.547 13.8419 298.547H17.9999V296.951H13.9539C13.1139 296.951 12.4419 296.391 12.4419 295.537C12.4419 294.627 13.0439 294.221 13.8419 294.221H17.9999V292.653H13.5759C11.7699 292.653 10.9859 293.829 10.9859 295.061C10.9859 295.943 11.2939 296.742 12.1899 297.273C11.3919 297.637 10.9859 298.421 10.9859 299.317C10.9859 300.087 11.3499 300.941 12.0499 301.333H11.1819V302.887H17.9999V301.277ZM14.6259 284.361H13.1839V288.309H14.6259V284.361ZM8.92794 274.109V280.885H10.3979V276.013C10.3979 276.013 12.9319 279.177 17.9999 279.569V277.833C13.3239 277.427 11.0279 274.865 10.3979 274.109H8.92794ZM16.1519 273.407C17.2299 273.407 18.2099 272.525 18.2099 271.097C18.2099 269.991 17.6499 269.319 17.1319 268.997C17.6779 268.997 17.9579 268.941 17.9999 268.927V267.415C17.9299 267.429 17.5239 267.499 16.9079 267.499H13.5199C12.1619 267.499 10.9719 268.297 10.9719 270.397C10.9719 272.077 12.0219 273.141 13.1979 273.267L13.5339 271.783C12.8479 271.713 12.3019 271.237 12.3019 270.383C12.3019 269.487 12.7639 269.095 13.3379 269.095C13.5759 269.095 13.7719 269.207 13.8279 269.599L14.0939 271.349C14.2619 272.511 14.9339 273.407 16.1519 273.407ZM16.9359 270.789C16.9359 271.433 16.5159 271.783 16.0539 271.783C15.4939 271.783 15.2139 271.377 15.1299 270.873L14.8639 269.095H15.1719C16.5019 269.095 16.9359 269.879 16.9359 270.789ZM17.9999 263.926H13.9539C13.0859 263.926 12.4419 263.38 12.4419 262.512C12.4419 261.588 13.0579 261.196 13.8419 261.196H17.9999V259.6H13.9539C13.1139 259.6 12.4419 259.04 12.4419 258.186C12.4419 257.276 13.0439 256.87 13.8419 256.87H17.9999V255.302H13.5759C11.7699 255.302 10.9859 256.478 10.9859 257.71C10.9859 258.592 11.2939 259.39 12.1899 259.922C11.3919 260.286 10.9859 261.07 10.9859 261.966C10.9859 262.736 11.3499 263.59 12.0499 263.982H11.1819V265.536H17.9999V263.926Z" fill="white"/>
<defs>
<filter id="filter0_d_611_18101" x="174" y="155" width="24" height="46" filterUnits="userSpaceOnUse" color-interpolation-filters="sRGB">
<feFlood flood-opacity="0" result="BackgroundImageFix"/>
<feColorMatrix in="SourceAlpha" type="matrix" values="0 0 0 0 0 0 0 0 0 0 0 0 0 0 0 0 0 0 127 0" result="hardAlpha"/>
<feOffset dy="4"/>
<feGaussianBlur stdDeviation="2"/>
<feComposite in2="hardAlpha" operator="out"/>
<feColorMatrix type="matrix" values="0 0 0 0 0 0 0 0 0 0 0 0 0 0 0 0 0 0 0.25 0"/>
<feBlend mode="normal" in2="BackgroundImageFix" result="effect1_dropShadow_611_18101"/>
<feBlend mode="normal" in="SourceGraphic" in2="effect1_dropShadow_611_18101" result="shape"/>
</filter>
<filter id="filter1_f_611_18101" x="-38" y="29" width="99" height="205" filterUnits="userSpaceOnUse" color-interpolation-filters="sRGB">
<feFlood flood-opacity="0" result="BackgroundImageFix"/>
<feBlend mode="normal" in="SourceGraphic" in2="BackgroundImageFix" result="shape"/>
<feGaussianBlur stdDeviation="9.5" result="effect1_foregroundBlur_611_18101"/>
</filter>
<filter id="filter2_f_611_18101" x="308" y="0" width="107" height="232" filterUnits="userSpaceOnUse" color-interpolation-filters="sRGB">
<feFlood flood-opacity="0" result="BackgroundImageFix"/>
<feBlend mode="normal" in="SourceGraphic" in2="BackgroundImageFix" result="shape"/>
<feGaussianBlur stdDeviation="9" result="effect1_foregroundBlur_611_18101"/>
</filter>
<filter id="filter3_f_611_18101" x="-38" y="216" width="99" height="205" filterUnits="userSpaceOnUse" color-interpolation-filters="sRGB">
<feFlood flood-opacity="0" result="BackgroundImageFix"/>
<feBlend mode="normal" in="SourceGraphic" in2="BackgroundImageFix" result="shape"/>
<feGaussianBlur stdDeviation="9.5" result="effect1_foregroundBlur_611_18101"/>
</filter>
<filter id="filter4_f_611_18101" x="312" y="215" width="99" height="238" filterUnits="userSpaceOnUse" color-interpolation-filters="sRGB">
<feFlood flood-opacity="0" result="BackgroundImageFix"/>
<feBlend mode="normal" in="SourceGraphic" in2="BackgroundImageFix" result="shape"/>
<feGaussianBlur stdDeviation="9.5" result="effect1_foregroundBlur_611_18101"/>
</filter>
<linearGradient id="paint0_linear_611_18101" x1="45" y1="140" x2="45" y2="193" gradientUnits="userSpaceOnUse">
<stop stop-color="white"/>
<stop offset="1" stop-color="#FDDDC9"/>
</linearGradient>
<linearGradient id="paint1_linear_611_18101" x1="92" y1="155" x2="92" y2="193" gradientUnits="userSpaceOnUse">
<stop stop-color="white"/>
<stop offset="1" stop-color="#FDDDC9"/>
</linearGradient>
<linearGradient id="paint2_linear_611_18101" x1="139" y1="155" x2="139" y2="193" gradientUnits="userSpaceOnUse">
<stop stop-color="white"/>
<stop offset="1" stop-color="#FDDDC9"/>
</linearGradient>
<linearGradient id="paint3_linear_611_18101" x1="186" y1="155" x2="186" y2="193" gradientUnits="userSpaceOnUse">
<stop stop-color="white"/>
<stop offset="1" stop-color="#FDDDC9"/>
</linearGradient>
<linearGradient id="paint4_linear_611_18101" x1="43" y1="350.5" x2="43" y2="250.5" gradientUnits="userSpaceOnUse">
<stop stop-color="white"/>
<stop offset="1" stop-color="#D8CFCF"/>
</linearGradient>
<linearGradient id="paint5_linear_611_18101" x1="90.6667" y1="323.5" x2="90.6667" y2="250.5" gradientUnits="userSpaceOnUse">
<stop stop-color="white"/>
<stop offset="1" stop-color="#D8CFCF"/>
</linearGradient>
<linearGradient id="paint6_linear_611_18101" x1="138.333" y1="350.5" x2="138.333" y2="250.5" gradientUnits="userSpaceOnUse">
<stop stop-color="white"/>
<stop offset="1" stop-color="#D8CFCF"/>
</linearGradient>
<linearGradient id="paint7_linear_611_18101" x1="186" y1="323.5" x2="186" y2="250.5" gradientUnits="userSpaceOnUse">
<stop stop-color="white"/>
<stop offset="1" stop-color="#D8CFCF"/>
</linearGradient>
<linearGradient id="paint8_linear_611_18101" x1="57.319" y1="167" x2="56.8436" y2="23.4998" gradientUnits="userSpaceOnUse">
<stop offset="0.0712398" stop-color="#F17233"/>
<stop offset="0.43772" stop-color="#F3722E"/>
<stop offset="0.736033" stop-color="#F3722A"/>
<stop offset="1" stop-color="#F37227"/>
</linearGradient>
<linearGradient id="paint9_linear_611_18101" x1="362.46" y1="186.746" x2="362.46" y2="25.5385" gradientUnits="userSpaceOnUse">
<stop stop-color="#F67727"/>
<stop offset="0.259122" stop-color="#F57826"/>
<stop offset="0.608534" stop-color="#F57B27"/>
<stop offset="1" stop-color="#F57E26"/>
</linearGradient>
<linearGradient id="paint10_linear_611_18101" x1="57.319" y1="167" x2="56.8436" y2="23.4998" gradientUnits="userSpaceOnUse">
<stop offset="0.0712398" stop-color="#5A1414"/>
<stop offset="0.43772" stop-color="#541414"/>
<stop offset="0.736033" stop-color="#4F1414"/>
<stop offset="1" stop-color="#4C1514"/>
</linearGradient>
<linearGradient id="paint11_linear_611_18101" x1="57.319" y1="200" x2="56.6371" y2="28.1443" gradientUnits="userSpaceOnUse">
<stop offset="0.0712398" stop-color="#461313"/>
<stop offset="0.43772" stop-color="#411212"/>
<stop offset="0.736033" stop-color="#3D1212"/>
<stop offset="1" stop-color="#391313"/>
</linearGradient>
</defs>
</svg>
