<svg width="31" height="27" viewBox="0 0 31 27" fill="none" xmlns="http://www.w3.org/2000/svg">
<g clip-path="url(#clip0_507_1139)" filter="url(#filter0_d_507_1139)">
<path d="M15.8315 4.70931L15.0536 3.95148L16.6094 2.43581L17.3873 3.19364L15.8315 4.70931ZM12.4977 2.86886H11.3864V0.703613H12.4977V2.86886ZM7.27469 13.0455L6.49679 12.2877L8.05258 10.772L8.83048 11.5298L7.27469 13.0455ZM6.94131 8.28196H4.71875V7.19934H6.94131V8.28196ZM8.05258 4.70931L6.49679 3.19364L7.27469 2.43581L8.83048 3.95148L8.05258 4.70931ZM8.05258 7.74065C8.06508 6.73948 8.47887 5.78274 9.2056 5.07476C9.93232 4.36677 10.9144 3.96365 11.9421 3.95148C12.9138 3.96338 13.8471 4.32296 14.5643 4.96179C15.2815 5.60061 15.7325 6.47406 15.8315 7.41586C15.4981 7.52413 15.0536 7.63239 14.7203 7.74065C14.7203 7.02283 14.4276 6.33441 13.9065 5.82683C13.3855 5.31925 12.6789 5.0341 11.9421 5.0341C11.2052 5.0341 10.4986 5.31925 9.97758 5.82683C9.45656 6.33441 9.16386 7.02283 9.16386 7.74065C9.17003 8.38552 9.40624 9.00822 9.83201 9.50202C10.2578 9.99582 10.8466 10.33 11.4975 10.4472C11.2706 10.7477 11.0839 11.0751 10.9419 11.4216C10.1139 11.1994 9.38325 10.7193 8.86154 10.0547C8.33983 9.39006 8.05572 8.57735 8.05258 7.74065Z" fill="#464958" stroke="#464958" stroke-width="0.25"/>
<path d="M21.8324 17.755C21.8324 17.6114 21.8909 17.4737 21.9951 17.3722C22.0993 17.2707 22.2407 17.2137 22.388 17.2137H11.8272C11.9745 17.2137 12.1159 17.2707 12.2201 17.3722C12.3243 17.4737 12.3828 17.6114 12.3828 17.755C12.3828 17.8985 12.3243 18.0362 12.2201 18.1377C12.1159 18.2393 11.9745 18.2963 11.8272 18.2963H22.388C22.2407 18.2963 22.0993 18.2393 21.9951 18.1377C21.8909 18.0362 21.8324 17.8985 21.8324 17.755Z" fill="#464958"/>
<path d="M12.4718 12.9374C12.5144 12.934 12.5565 12.9267 12.5977 12.9157C12.5569 12.9285 12.5146 12.9357 12.4718 12.9374Z" fill="#464958"/>
<path d="M12.3828 17.755C12.3828 17.6114 12.3243 17.4737 12.2201 17.3722C12.1159 17.2707 11.9745 17.2137 11.8272 17.2137C11.2377 17.2137 10.6725 16.9855 10.2557 16.5795C9.83885 16.1734 9.60469 15.6227 9.60469 15.0484C9.60469 14.4742 9.83885 13.9234 10.2557 13.5174C10.6725 13.1113 11.2378 12.8832 11.8272 12.8832C11.9962 12.8813 12.165 12.8958 12.331 12.9265H12.4533H12.3644C12.2923 12.9147 12.2234 12.8892 12.1615 12.8514C12.0997 12.8136 12.046 12.7643 12.0037 12.7063C11.9614 12.6484 11.9312 12.5828 11.9149 12.5135C11.8986 12.4441 11.8965 12.3723 11.9087 12.3022C11.9374 12.1342 11.9757 11.9679 12.0236 11.8042H11.8272C10.9431 11.8042 10.0951 12.1464 9.46987 12.7554C8.84465 13.3645 8.49341 14.1906 8.49341 15.052C8.49341 15.9134 8.84465 16.7395 9.46987 17.3486C10.0951 17.9577 10.9431 18.2999 11.8272 18.2999C11.9005 18.2999 11.9731 18.2858 12.0407 18.2583C12.1084 18.2309 12.1698 18.1907 12.2215 18.1401C12.2731 18.0894 12.3139 18.0293 12.3417 17.9632C12.3694 17.8971 12.3833 17.8264 12.3828 17.755Z" fill="#464958"/>
<path d="M21.6361 11.8908L21.5324 11.9089C21.5765 11.9061 21.6201 11.8976 21.662 11.8836L21.6361 11.8908Z" fill="#464958"/>
<path d="M12.3644 12.9337H12.4718C12.5146 12.9321 12.5569 12.9248 12.5977 12.9121C12.7006 12.8871 12.7939 12.8336 12.8663 12.758C12.9386 12.6824 12.9868 12.588 13.0052 12.4862C13.1542 11.6262 13.583 10.8357 14.2283 10.2312C14.8737 9.62671 15.7014 9.24036 16.5894 9.12915C17.4773 9.01793 18.3784 9.18775 19.1597 9.61353C19.9411 10.0393 20.5612 10.6985 20.9286 11.4938C20.8997 11.3626 20.9215 11.2256 20.9898 11.109C21.0582 10.9925 21.1683 10.9046 21.299 10.8623C21.4591 10.8156 21.6226 10.7806 21.788 10.7577C21.2934 9.84326 20.5277 9.09513 19.5905 8.61071C18.6533 8.12629 17.5881 7.92803 16.5336 8.04174C15.4791 8.15545 14.4842 8.57587 13.6785 9.24824C12.8727 9.92061 12.2935 10.8138 12.0162 11.8114C11.9683 11.9752 11.93 12.1414 11.9013 12.3094C11.8892 12.3801 11.8916 12.4524 11.9083 12.5221C11.9251 12.5919 11.9559 12.6577 11.999 12.7158C12.042 12.7739 12.0965 12.823 12.1592 12.8604C12.222 12.8979 12.2917 12.9228 12.3644 12.9337Z" fill="#464958"/>
<path d="M22.3881 10.7144C22.1896 10.7138 21.9915 10.7282 21.7954 10.7577C21.6299 10.7807 21.4665 10.8157 21.3064 10.8623C21.1757 10.9047 21.0656 10.9925 20.9972 11.1091C20.9289 11.2256 20.9071 11.3626 20.936 11.4939V11.5408C20.9737 11.6464 21.0443 11.7379 21.1379 11.8026C21.2315 11.8672 21.3435 11.9019 21.4583 11.9017H21.5287L21.6324 11.8836H21.6583C21.8992 11.8168 22.1488 11.7852 22.3992 11.7898C22.7761 11.7708 23.153 11.8268 23.507 11.9542C23.861 12.0817 24.1847 12.278 24.4584 12.5312C24.732 12.7843 24.95 13.0891 25.0989 13.427C25.2478 13.7648 25.3246 14.1287 25.3246 14.4963C25.3246 14.864 25.2478 15.2278 25.0989 15.5657C24.95 15.9035 24.732 16.2083 24.4584 16.4615C24.1847 16.7147 23.861 16.911 23.507 17.0385C23.153 17.1659 22.7761 17.2219 22.3992 17.2029C22.2518 17.2029 22.1105 17.2599 22.0063 17.3614C21.9021 17.463 21.8435 17.6006 21.8435 17.7442C21.8435 17.8878 21.9021 18.0255 22.0063 18.127C22.1105 18.2285 22.2518 18.2855 22.3992 18.2855C22.9242 18.3078 23.4485 18.2264 23.9403 18.046C24.4322 17.8657 24.8815 17.5902 25.2612 17.2361C25.6408 16.882 25.9429 16.4568 26.1493 15.9859C26.3557 15.515 26.4621 15.0083 26.4621 14.4963C26.4621 13.9843 26.3557 13.4776 26.1493 13.0068C25.9429 12.5359 25.6408 12.1106 25.2612 11.7566C24.8815 11.4025 24.4322 11.127 23.9403 10.9467C23.4485 10.7663 22.9242 10.6848 22.3992 10.7072L22.3881 10.7144Z" fill="#464958"/>
<path d="M11.8272 17.2137H22.388C22.2407 17.2137 22.0993 17.2707 21.9951 17.3722C21.8909 17.4737 21.8324 17.6114 21.8324 17.755C21.8324 17.8985 21.8909 18.0362 21.9951 18.1377C22.0993 18.2393 22.2407 18.2963 22.388 18.2963H11.8272C11.9745 18.2963 12.1159 18.2393 12.2201 18.1377C12.3243 18.0362 12.3828 17.8985 12.3828 17.755M11.8272 17.2137C11.9745 17.2137 12.1159 17.2707 12.2201 17.3722C12.3243 17.4737 12.3828 17.6114 12.3828 17.755M11.8272 17.2137C11.2377 17.2137 10.6725 16.9855 10.2557 16.5795C9.83885 16.1734 9.60469 15.6227 9.60469 15.0484C9.60469 14.4742 9.83885 13.9234 10.2557 13.5174C10.6725 13.1113 11.2378 12.8832 11.8272 12.8832C11.9962 12.8813 12.165 12.8958 12.331 12.9265H12.4533H12.3644C12.2923 12.9147 12.2234 12.8892 12.1615 12.8514C12.0997 12.8136 12.046 12.7643 12.0037 12.7063C11.9614 12.6484 11.9312 12.5828 11.9149 12.5135C11.8986 12.4441 11.8965 12.3723 11.9087 12.3022C11.9374 12.1342 11.9757 11.9679 12.0236 11.8042H11.8272C10.9431 11.8042 10.0951 12.1464 9.46987 12.7554C8.84465 13.3645 8.49341 14.1906 8.49341 15.052C8.49341 15.9134 8.84465 16.7395 9.46987 17.3486C10.0951 17.9577 10.9431 18.2999 11.8272 18.2999C11.9005 18.2999 11.9731 18.2858 12.0407 18.2583C12.1084 18.2309 12.1698 18.1907 12.2215 18.1401C12.2731 18.0894 12.3139 18.0293 12.3417 17.9632C12.3694 17.8971 12.3833 17.8264 12.3828 17.755M12.4718 12.9374C12.5144 12.934 12.5565 12.9267 12.5977 12.9157C12.5569 12.9285 12.5146 12.9357 12.4718 12.9374ZM21.6361 11.8908L21.5324 11.9089C21.5765 11.9061 21.6201 11.8976 21.662 11.8836L21.6361 11.8908ZM12.3644 12.9337C12.2917 12.9228 12.222 12.8979 12.1592 12.8604C12.0965 12.823 12.042 12.7739 11.999 12.7158C11.9559 12.6577 11.9251 12.5919 11.9083 12.5221C11.8916 12.4524 11.8892 12.3801 11.9013 12.3094C11.93 12.1414 11.9683 11.9752 12.0162 11.8114C12.2935 10.8138 12.8727 9.92061 13.6785 9.24824C14.4842 8.57587 15.4791 8.15545 16.5336 8.04174C17.5881 7.92803 18.6533 8.12629 19.5905 8.61071C20.5277 9.09513 21.2934 9.84326 21.788 10.7577C21.6226 10.7806 21.4591 10.8156 21.299 10.8623C21.1683 10.9046 21.0582 10.9925 20.9898 11.109C20.9215 11.2256 20.8997 11.3626 20.9286 11.4938C20.5612 10.6985 19.9411 10.0393 19.1597 9.61353C18.3784 9.18775 17.4773 9.01793 16.5894 9.12915C15.7014 9.24036 14.8737 9.62671 14.2283 10.2312C13.583 10.8357 13.1542 11.6262 13.0052 12.4862C12.9868 12.588 12.9386 12.6824 12.8663 12.758C12.7939 12.8336 12.7006 12.8871 12.5977 12.9121C12.5569 12.9248 12.5146 12.9321 12.4718 12.9337H12.3644ZM22.3881 10.7144C22.1896 10.7138 21.9915 10.7282 21.7954 10.7577C21.6299 10.7807 21.4665 10.8157 21.3064 10.8623C21.1757 10.9047 21.0656 10.9925 20.9972 11.1091C20.9289 11.2256 20.9071 11.3626 20.936 11.4939V11.5408C20.9737 11.6464 21.0443 11.7379 21.1379 11.8026C21.2315 11.8672 21.3435 11.9019 21.4583 11.9017H21.5287L21.6324 11.8836H21.6583C21.8992 11.8168 22.1488 11.7852 22.3992 11.7898C22.7761 11.7708 23.153 11.8268 23.507 11.9542C23.861 12.0817 24.1847 12.278 24.4584 12.5312C24.732 12.7844 24.95 13.0891 25.0989 13.427C25.2478 13.7648 25.3246 14.1287 25.3246 14.4963C25.3246 14.864 25.2478 15.2278 25.0989 15.5657C24.95 15.9035 24.732 16.2083 24.4584 16.4615C24.1847 16.7147 23.861 16.911 23.507 17.0385C23.153 17.1659 22.7761 17.2219 22.3992 17.2029C22.2518 17.2029 22.1105 17.2599 22.0063 17.3614C21.9021 17.463 21.8435 17.6006 21.8435 17.7442C21.8435 17.8878 21.9021 18.0255 22.0063 18.127C22.1105 18.2285 22.2518 18.2855 22.3992 18.2855C22.9242 18.3078 23.4485 18.2264 23.9403 18.046C24.4322 17.8657 24.8815 17.5902 25.2612 17.2361C25.6408 16.882 25.9429 16.4568 26.1493 15.9859C26.3557 15.515 26.4621 15.0083 26.4621 14.4963C26.4621 13.9843 26.3557 13.4776 26.1493 13.0068C25.9429 12.5359 25.6408 12.1106 25.2612 11.7566C24.8815 11.4025 24.4322 11.127 23.9403 10.9467C23.4485 10.7663 22.9242 10.6848 22.3992 10.7072L22.3881 10.7144Z" stroke="#464958" stroke-width="0.25"/>
</g>
<defs>
<filter id="filter0_d_507_1139" x="0" y="0" width="31" height="27" filterUnits="userSpaceOnUse" color-interpolation-filters="sRGB">
<feFlood flood-opacity="0" result="BackgroundImageFix"/>
<!-- <feColorMatrix in="SourceAlpha" type="matrix" values="0 0 0 0 0 0 0 0 0 0 0 0 0 0 0 0 0 0 127 0" result="hardAlpha"/> -->
<feOffset dy="4"/>
<feGaussianBlur stdDeviation="2"/>
<feComposite in2="hardAlpha" operator="out"/>
<feColorMatrix type="matrix" values="0 0 0 0 0 0 0 0 0 0 0 0 0 0 0 0 0 0 0.25 0"/>
<feBlend mode="normal" in2="BackgroundImageFix" result="effect1_dropShadow_507_1139"/>
<feBlend mode="normal" in="SourceGraphic" in2="effect1_dropShadow_507_1139" result="shape"/>
</filter>
<clipPath id="clip0_507_1139">
<rect width="23" height="19" fill="white" transform="translate(4)"/>
</clipPath>
</defs>
</svg>
