<svg width="74" height="75" viewBox="0 0 74 75" fill="none" xmlns="http://www.w3.org/2000/svg">
<path d="M70.2422 34.2216C69.8019 33.9704 69.3038 33.8383 68.7969 33.8383C68.29 33.8383 67.7918 33.9704 67.3516 34.2216L55.474 41.0434C55.3639 41.106 55.2393 41.1387 55.1127 41.1382C54.9861 41.1377 54.8618 41.104 54.7521 41.0406C54.6425 40.9772 54.5514 40.8862 54.4879 40.7766C54.4244 40.6671 54.3906 40.5428 54.39 40.4162V36.7711C54.3901 36.2664 54.2582 35.7705 54.0072 35.3327C53.7562 34.8949 53.395 34.5304 52.9594 34.2755C52.5239 34.0206 52.0292 33.8842 51.5245 33.8798C51.0199 33.8754 50.5229 34.0032 50.083 34.2505L38.0724 41.0088C37.9624 41.0696 37.8383 41.1007 37.7125 41.099C37.5868 41.0972 37.4636 41.0626 37.3553 40.9987C37.247 40.9348 37.1572 40.8437 37.0949 40.7344C37.0326 40.6251 36.9999 40.5015 37 40.3757V36.8896C37.0003 36.3691 36.86 35.8582 36.5941 35.4108C36.3281 34.9634 35.9462 34.5961 35.4888 34.3477C35.0314 34.0994 34.5155 33.9791 33.9954 33.9996C33.4753 34.0201 32.9704 34.1807 32.534 34.4644L22.2578 41.1475C22.1596 41.2118 22.047 41.2509 21.9301 41.2615C21.8131 41.2721 21.6954 41.2538 21.5872 41.2082C21.4787 41.1627 21.3829 41.0916 21.3079 41.001C21.2329 40.9104 21.1809 40.803 21.1565 40.6879L16.491 18.2711C16.3578 17.6187 16.0035 17.0322 15.4879 16.6109C14.9723 16.1895 14.327 15.9591 13.6611 15.9586H9.16907C8.47261 15.9587 7.79961 16.2103 7.27383 16.667C6.74805 17.1237 6.40485 17.7549 6.30735 18.4445L2.48016 45.7031C2.36795 46.5018 2.31193 47.3074 2.3125 48.1139V67.9898C2.3125 68.7565 2.61705 69.4917 3.15915 70.0338C3.70125 70.5759 4.43649 70.8805 5.20313 70.8805H68.7969C69.5635 70.8805 70.2988 70.5759 70.8409 70.0338C71.383 69.4917 71.6875 68.7565 71.6875 67.9898V36.7248C71.6875 36.2174 71.5539 35.719 71.3002 35.2796C71.0465 34.8402 70.6816 34.4753 70.2422 34.2216Z" fill="#F58025"/>
<path d="M64.8906 11.0829C60.8458 15.1917 55.4094 14.1229 51.5608 12.5027L34.6385 5.37822C32.5696 4.50217 30.3345 4.07581 28.0624 4.12376C25.7904 4.1717 23.5263 4.69301 21.4011 5.65757C20.5575 6.03773 19.8746 6.74756 19.5027 7.63089C19.1308 8.51423 19.1004 9.49871 19.418 10.3678C19.7357 11.2368 20.3755 11.9193 21.1966 12.265C22.0178 12.6107 22.953 12.5913 23.7966 12.2112C26.4055 11.0449 29.2927 10.9829 31.8345 12.0386L48.7567 19.163C56.8303 22.5621 64.1885 21.4761 69.483 16.1025C70.1482 15.426 70.5443 14.5128 70.5841 13.5638C70.6239 12.6147 70.3041 11.7076 69.6951 11.0419C69.0861 10.3763 68.2378 10.0067 67.3368 10.0144C66.4358 10.022 65.5559 10.4064 64.8906 11.0829Z" fill="#F58025"/>
</svg>
