<svg width="33" height="34" viewBox="0 0 33 34" fill="none" xmlns="http://www.w3.org/2000/svg">
<path d="M16.4394 3.79687V1.76562M25.775 7.66444L27.2117 6.22768M29.6425 17H31.6738M25.775 26.3355L27.2117 27.7723M16.4394 30.2031V32.2343M7.10376 26.3355L5.66699 27.7723M3.23633 17H1.20508M7.10376 7.66444L5.66699 6.22768M7.29881 17C7.29881 19.4242 8.26184 21.7492 9.97604 23.4634C11.6902 25.1776 14.0152 26.1406 16.4394 26.1406C18.8637 26.1406 21.1886 25.1776 22.9028 23.4634C24.617 21.7492 25.58 19.4242 25.58 17C25.58 14.5757 24.617 12.2508 22.9028 10.5366C21.1886 8.82238 18.8637 7.85936 16.4394 7.85936C14.0152 7.85936 11.6902 8.82238 9.97604 10.5366C8.26184 12.2508 7.29881 14.5757 7.29881 17Z" stroke="#F26526" stroke-width="2" stroke-linecap="round" stroke-linejoin="round"/>
</svg>
