<svg width="13" height="16" viewBox="0 0 13 16" fill="none" xmlns="http://www.w3.org/2000/svg">
<path fill-rule="evenodd" clip-rule="evenodd" d="M1.3275 7.24631C-0.789122 10.9076 2.60467 15.4795 6.56976 15.3938C7.40205 15.3556 8.2168 15.1415 8.96027 14.7654C9.70375 14.3894 10.3591 13.86 10.883 13.2122C11.4069 12.5644 11.7876 11.8129 11.9998 11.0072C12.2121 10.2016 12.2511 9.36003 12.1144 8.53817C12.0466 8.12849 11.9514 7.72384 11.8293 7.32694C11.6501 6.64062 11.3274 6.0001 10.8825 5.44764C10.8501 5.4122 10.8071 5.38832 10.7599 5.37965C10.7127 5.37098 10.664 5.37799 10.6212 5.39962C10.5784 5.42124 10.5438 5.45629 10.5228 5.49941C10.5018 5.54252 10.4954 5.59134 10.5048 5.63839C10.654 6.18148 10.5908 6.76104 10.328 7.25917C10.2983 7.29505 10.2581 7.3208 10.2132 7.33286C10.1682 7.34491 10.1205 7.34267 10.0769 7.32644C10.0332 7.31021 9.99571 7.2808 9.96952 7.24229C9.94333 7.20377 9.92977 7.15807 9.93073 7.1115C10.0117 3.52642 7.31236 0.640581 4.47602 0.472501C4.41709 0.467045 4.35785 0.478713 4.30539 0.506104C4.25294 0.533496 4.2095 0.575446 4.1803 0.626919C4.15111 0.678392 4.13739 0.737198 4.14079 0.796277C4.1442 0.855356 4.16459 0.912195 4.19951 0.959971C5.39058 2.72688 5.59561 6.46868 4.07905 6.36245C4.04201 6.36059 4.00579 6.3509 3.97277 6.33403C3.93975 6.31715 3.91067 6.29348 3.88745 6.26456C3.86424 6.23565 3.84741 6.20214 3.83808 6.16625C3.82874 6.13036 3.82711 6.0929 3.8333 6.05634C3.88348 5.59484 3.78604 5.1293 3.55496 4.72668C3.32389 4.32405 2.97109 4.00506 2.5473 3.81558C2.50253 3.80656 2.45623 3.80855 2.4124 3.8214C2.36857 3.83425 2.32853 3.85756 2.29571 3.88932C2.26289 3.92109 2.23829 3.96036 2.22403 4.00375C2.20976 4.04713 2.20626 4.09334 2.21382 4.13838C2.37052 5.19052 2.411 5.37207 1.3275 7.24631Z" fill="white"/>
</svg>
