<svg width="34" height="35" viewBox="0 0 34 35" fill="none" xmlns="http://www.w3.org/2000/svg">
<path d="M8.57709 1.72461H10.6838C14.1738 1.72461 17.0037 5.60789 17.0037 9.09793V10.1513" stroke="#F58025" stroke-width="2.10666" stroke-linecap="round" stroke-linejoin="round"/>
<path d="M7.5238 16.4717V20.685" stroke="#F58025" stroke-width="2.10666" stroke-linecap="round" stroke-linejoin="round"/>
<path d="M5.41705 18.5781H9.63038" stroke="#F58025" stroke-width="2.10666" stroke-linecap="round" stroke-linejoin="round"/>
<path d="M24.3771 18.5781C24.5168 18.5781 24.6507 18.6336 24.7495 18.7324C24.8483 18.8312 24.9037 18.9651 24.9037 19.1048" stroke="#F58025" stroke-width="2.10666" stroke-linecap="round" stroke-linejoin="round"/>
<path d="M23.8505 19.1048C23.8505 18.9651 23.906 18.8312 24.0047 18.7324C24.1035 18.6336 24.2374 18.5781 24.3771 18.5781" stroke="#F58025" stroke-width="2.10666" stroke-linecap="round" stroke-linejoin="round"/>
<path d="M24.3771 19.6312C24.2374 19.6312 24.1035 19.5757 24.0047 19.4769C23.906 19.3781 23.8505 19.2442 23.8505 19.1045" stroke="#F58025" stroke-width="2.10666" stroke-linecap="round" stroke-linejoin="round"/>
<path d="M24.9037 19.1045C24.9037 19.2442 24.8483 19.3781 24.7495 19.4769C24.6507 19.5757 24.5168 19.6312 24.3771 19.6312" stroke="#F58025" stroke-width="2.10666" stroke-linecap="round" stroke-linejoin="round"/>
<path d="M27.5371 15.418C27.6768 15.418 27.8107 15.4735 27.9095 15.5722C28.0083 15.671 28.0638 15.805 28.0638 15.9446" stroke="#F58025" stroke-width="2.10666" stroke-linecap="round" stroke-linejoin="round"/>
<path d="M27.0104 15.9446C27.0104 15.805 27.0659 15.671 27.1647 15.5722C27.2635 15.4735 27.3974 15.418 27.5371 15.418" stroke="#F58025" stroke-width="2.10666" stroke-linecap="round" stroke-linejoin="round"/>
<path d="M27.5371 16.471C27.3974 16.471 27.2635 16.4155 27.1647 16.3167C27.0659 16.218 27.0104 16.084 27.0104 15.9443" stroke="#F58025" stroke-width="2.10666" stroke-linecap="round" stroke-linejoin="round"/>
<path d="M28.0638 15.9443C28.0638 16.084 28.0083 16.218 27.9095 16.3167C27.8107 16.4155 27.6768 16.471 27.5371 16.471" stroke="#F58025" stroke-width="2.10666" stroke-linecap="round" stroke-linejoin="round"/>
<path d="M32.8038 21.738V16.4714C32.8038 14.7952 32.1379 13.1877 30.9527 12.0025C29.7674 10.8172 28.1599 10.1514 26.4838 10.1514H7.52378C5.84762 10.1514 4.2401 10.8172 3.05487 12.0025C1.86964 13.1877 1.20379 14.7952 1.20379 16.4714V28.5805C1.17873 29.6062 1.49149 30.6118 2.09393 31.4424C2.69638 32.2729 3.55511 32.8825 4.53794 33.1772C5.56297 33.4473 6.65047 33.3463 7.60829 32.8922C8.56611 32.4381 9.33259 31.6601 9.77229 30.6956L12.8859 24.898H21.1216L24.1482 30.5031C24.4473 31.2024 24.9122 31.8182 25.5026 32.2976C26.0931 32.7769 26.7913 33.1053 27.5371 33.2544C28.1825 33.3675 28.8448 33.338 29.4776 33.1681C30.1104 32.9982 30.6985 32.692 31.2005 32.271C31.7025 31.8499 32.1064 31.3241 32.3838 30.7306C32.6612 30.137 32.8055 29.4899 32.8066 28.8347L32.8038 21.738Z" stroke="#F58025" stroke-width="2.10666" stroke-linecap="round" stroke-linejoin="round"/>
</svg>
