<svg width="200" height="201" viewBox="0 0 200 201" fill="none" xmlns="http://www.w3.org/2000/svg">
<circle cx="99.5" cy="100.5" r="92.5" stroke="#DADBDE" stroke-width="14"/>
<path d="M99.4999 8C150.586 8 192 49.4137 192 100.5C192 151.586 150.586 193 99.4999 193C75.3028 193 53.2757 183.709 36.7915 168.5" stroke="url(#paint0_radial_501_752)" stroke-width="14.5631" stroke-linecap="round" stroke-linejoin="round"/>
<rect width="64" height="64" transform="translate(67.5922 46)" fill="white"/>
<path d="M99.5922 58.8711C95.0993 58.9506 90.8128 60.7726 87.6361 63.9532C84.4593 67.1337 82.6406 71.4243 82.5633 75.9205C82.5079 79.2755 83.4686 82.5687 85.3192 85.3668C87.1697 88.1648 89.8234 90.3368 92.9309 91.5967C93.0084 91.6264 93.0905 91.6417 93.1734 91.6421H96.9677C97.1443 91.6421 97.3138 91.5718 97.4387 91.4468C97.5636 91.3218 97.6338 91.1522 97.6338 90.9754V82.2454C97.6328 82.0682 97.562 81.8986 97.4366 81.7734L92.9629 77.3018C92.6382 76.925 92.4682 76.4392 92.487 75.9421C92.5058 75.445 92.712 74.9734 93.0642 74.6224C93.4164 74.2713 93.8884 74.0667 94.3852 74.0498C94.882 74.0329 95.3668 74.2049 95.742 74.5313L99.1206 77.9124C99.1823 77.9748 99.2558 78.0243 99.3367 78.0581C99.4177 78.0919 99.5045 78.1093 99.5922 78.1093C99.6799 78.1093 99.7668 78.0919 99.8477 78.0581C99.9287 78.0243 100.002 77.9748 100.064 77.9124L103.442 74.5313C103.815 74.1843 104.308 73.9956 104.817 74.0049C105.326 74.0142 105.812 74.2207 106.172 74.5809C106.532 74.9412 106.738 75.4272 106.748 75.9367C106.757 76.4461 106.568 76.9393 106.222 77.3124L101.753 81.7841C101.628 81.9093 101.557 82.0789 101.556 82.2561V90.9861C101.556 91.1629 101.626 91.3325 101.751 91.4575C101.876 91.5825 102.045 91.6527 102.222 91.6527H106.019C106.101 91.6527 106.182 91.6373 106.259 91.6074C109.365 90.3466 112.018 88.1743 113.867 85.3763C115.717 82.5783 116.677 79.2855 116.621 75.9312C116.547 71.4331 114.729 67.1398 111.552 63.957C108.375 60.7742 104.087 58.9507 99.5922 58.8711ZM96.973 48.6211V53.6261C96.973 54.3213 97.249 54.988 97.7402 55.4796C98.2314 55.9711 98.8976 56.2473 99.5922 56.2473C100.287 56.2473 100.953 55.9711 101.444 55.4796C101.935 54.988 102.211 54.3213 102.211 53.6261V48.6211C102.211 47.926 101.935 47.2593 101.444 46.7677C100.953 46.2762 100.287 46 99.5922 46C98.8976 46 98.2314 46.2762 97.7402 46.7677C97.249 47.2593 96.973 47.926 96.973 48.6211ZM76.776 71.9795H70.7728C70.0782 71.9795 69.412 72.2556 68.9208 72.7472C68.4296 73.2388 68.1536 73.9054 68.1536 74.6006C68.1536 75.2958 68.4296 75.9625 68.9208 76.4541C69.412 76.9456 70.0782 77.2218 70.7728 77.2218H76.776C77.4707 77.2218 78.1369 76.9456 78.6281 76.4541C79.1193 75.9625 79.3952 75.2958 79.3952 74.6006C79.3952 73.9054 79.1193 73.2388 78.6281 72.7472C78.1369 72.2556 77.4707 71.9795 76.776 71.9795ZM84.4045 58.3271L79.4139 53.3221C78.9201 52.8433 78.2581 52.578 77.5706 52.5834C76.8831 52.5888 76.2252 52.8646 75.7391 53.3511C75.2529 53.8376 74.9774 54.4959 74.972 55.1839C74.9666 55.8719 75.2317 56.5344 75.7102 57.0285L80.7115 62.0335C81.2111 62.4792 81.8623 62.7166 82.5313 62.697C83.2004 62.6773 83.8365 62.402 84.3091 61.9277C84.7817 61.4534 85.0549 60.816 85.0727 60.1464C85.0904 59.4768 84.8513 58.8258 84.4045 58.3271ZM128.412 71.9795H122.408C121.714 71.9795 121.048 72.2556 120.556 72.7472C120.065 73.2388 119.789 73.9054 119.789 74.6006C119.789 75.2958 120.065 75.9625 120.556 76.4541C121.048 76.9456 121.714 77.2218 122.408 77.2218H128.412C129.106 77.2218 129.772 76.9456 130.264 76.4541C130.755 75.9625 131.031 75.2958 131.031 74.6006C131.031 73.9054 130.755 73.2388 130.264 72.7472C129.772 72.2556 129.106 71.9795 128.412 71.9795ZM123.474 53.3221C122.983 52.8307 122.317 52.5547 121.622 52.5547C120.928 52.5547 120.262 52.8307 119.771 53.3221L114.78 58.3271C114.53 58.5691 114.332 58.8583 114.195 59.1779C114.058 59.4975 113.986 59.8412 113.984 60.1889C113.981 60.5365 114.047 60.8813 114.179 61.203C114.311 61.5247 114.505 61.817 114.751 62.0629C114.996 62.3087 115.288 62.5032 115.61 62.635C115.931 62.7668 116.276 62.8333 116.623 62.8305C116.971 62.8278 117.314 62.7559 117.633 62.6191C117.953 62.4823 118.242 62.2832 118.484 62.0335L123.485 57.0285C123.975 56.5356 124.249 55.8682 124.247 55.1731C124.245 54.4781 123.967 53.8123 123.474 53.3221ZM106.142 94.8952H93.0428C92.3482 94.8952 91.682 95.1713 91.1908 95.6629C90.6996 96.1544 90.4236 96.8211 90.4236 97.5163C90.4236 98.2115 90.6996 98.8782 91.1908 99.3697C91.682 99.8613 92.3482 100.137 93.0428 100.137H106.142C106.836 100.137 107.502 99.8613 107.994 99.3697C108.485 98.8782 108.761 98.2115 108.761 97.5163C108.761 96.8211 108.485 96.1544 107.994 95.6629C107.502 95.1713 106.836 94.8952 106.142 94.8952ZM106.142 102.129H93.0428C92.3482 102.129 91.682 102.405 91.1908 102.897C90.6996 103.389 90.4236 104.055 90.4236 104.75C90.4236 105.446 90.6996 106.112 91.1908 106.604C91.682 107.095 92.3482 107.372 93.0428 107.372H96.3735C96.5272 107.371 96.6763 107.424 96.7954 107.521C96.9144 107.618 96.9961 107.754 97.0263 107.905C97.1474 108.496 97.4689 109.028 97.9364 109.41C98.4039 109.792 98.9888 110 99.5922 110C100.196 110 100.781 109.792 101.248 109.41C101.716 109.028 102.037 108.496 102.158 107.905C102.189 107.754 102.271 107.619 102.39 107.522C102.509 107.425 102.657 107.372 102.811 107.372H106.142C106.836 107.372 107.502 107.095 107.994 106.604C108.485 106.112 108.761 105.446 108.761 104.75C108.761 104.055 108.485 103.389 107.994 102.897C107.502 102.405 106.836 102.129 106.142 102.129Z" fill="#F58025"/>
<path d="M86.152 129.712C85.288 129.2 83.72 128.752 81.8 128.752C74.952 128.752 70.28 133.488 70.28 140.944C70.28 147.216 74.152 150.48 78.696 150.48C83.272 150.48 86.728 147.44 86.728 143.184C86.728 138.896 83.816 136.208 79.56 136.208C77.128 136.208 75.4 137.36 74.632 138.512C75.112 134.608 77.992 132.56 81.512 132.56C82.824 132.56 84.04 132.912 84.936 133.296L86.152 129.712ZM75.016 143.28C75.016 141.136 76.68 139.824 78.664 139.824C80.68 139.824 82.344 141.136 82.344 143.28C82.344 145.424 80.68 146.768 78.664 146.768C76.744 146.768 75.016 145.392 75.016 143.28ZM92.097 137.264C92.001 136.912 91.937 136.496 91.937 136.112C91.937 134.16 93.025 132.656 95.233 132.656C97.313 132.656 98.369 134 98.369 135.504C98.369 136.944 97.665 138.032 95.905 139.088L92.481 141.136C88.769 143.376 87.617 146.352 87.585 150H102.945V146.192H92.993C93.313 145.392 93.985 144.816 94.785 144.304L98.785 141.872C101.345 140.304 102.817 138.128 102.817 135.44C102.817 131.824 99.969 128.752 95.329 128.752C90.497 128.752 87.745 132.048 87.745 135.696C87.745 136.208 87.841 136.848 87.905 137.136L92.097 137.264ZM107.544 134.128C107.544 132.816 108.472 131.92 109.656 131.92C110.872 131.92 111.768 132.816 111.768 134.128C111.768 135.44 110.872 136.368 109.656 136.368C108.472 136.368 107.544 135.472 107.544 134.128ZM104.344 134.128C104.344 137.04 106.744 139.344 109.656 139.344C112.536 139.344 115 137.104 115 134.128C115 131.184 112.536 128.88 109.656 128.88C106.776 128.88 104.344 131.184 104.344 134.128ZM121.528 145.136C121.528 143.824 122.456 142.928 123.64 142.928C124.856 142.928 125.752 143.824 125.752 145.136C125.752 146.448 124.856 147.376 123.64 147.376C122.456 147.376 121.528 146.48 121.528 145.136ZM118.328 145.136C118.328 148.048 120.728 150.352 123.64 150.352C126.52 150.352 128.984 148.112 128.984 145.136C128.984 142.192 126.52 139.888 123.64 139.888C120.76 139.888 118.328 142.192 118.328 145.136ZM111.192 150L125.848 129.232H122.136L107.48 150H111.192Z" fill="#F58025"/>
<defs>
<radialGradient id="paint0_radial_501_752" cx="0" cy="0" r="1" gradientUnits="userSpaceOnUse" gradientTransform="translate(36.7915 193) rotate(33.1019) scale(227.847 360.557)">
<stop stop-color="#F26526"/>
<stop offset="0.494792" stop-color="#F58025"/>
<stop offset="1" stop-color="#FFCD00"/>
</radialGradient>
</defs>
</svg>
