<svg width="176" height="48" viewBox="0 0 176 48" fill="none" xmlns="http://www.w3.org/2000/svg">
<rect x="0.109863" width="174" height="20" rx="10" fill="url(#paint0_linear_501_735)"/>
<path d="M145.08 10.828V15H147.012V10.828L150.512 5.074H148.342L146.116 9.008L143.89 5.074H141.622L145.08 10.828ZM153.363 13.516C152.453 13.516 151.613 12.844 151.613 11.556C151.613 10.254 152.453 9.596 153.363 9.596C154.273 9.596 155.113 10.254 155.113 11.556C155.113 12.858 154.273 13.516 153.363 13.516ZM153.363 7.902C151.305 7.902 149.751 9.428 149.751 11.556C149.751 13.67 151.305 15.21 153.363 15.21C155.421 15.21 156.975 13.67 156.975 11.556C156.975 9.428 155.421 7.902 153.363 7.902ZM162.925 15H164.703C164.675 14.762 164.633 14.286 164.633 13.754V8.112H162.771V12.116C162.771 12.914 162.295 13.474 161.469 13.474C160.601 13.474 160.209 12.858 160.209 12.088V8.112H158.347V12.466C158.347 13.964 159.299 15.182 160.965 15.182C161.693 15.182 162.491 14.902 162.869 14.258C162.869 14.538 162.897 14.86 162.925 15Z" fill="white"/>
<rect x="0.109863" y="28" width="136" height="20" rx="10" fill="#DADBDE"/>
<path d="M90.0898 35.44C89.8658 34.32 88.9418 32.864 86.5338 32.864C84.6578 32.864 83.0758 34.208 83.0758 35.972C83.0758 37.47 84.0978 38.492 85.6798 38.814L87.0658 39.094C87.8358 39.248 88.2698 39.696 88.2698 40.27C88.2698 40.97 87.6958 41.488 86.6598 41.488C85.2598 41.488 84.5738 40.606 84.4898 39.626L82.6978 40.102C82.8518 41.516 84.0138 43.21 86.6458 43.21C88.9558 43.21 90.2298 41.67 90.2298 40.144C90.2298 38.744 89.2638 37.568 87.4578 37.218L86.0718 36.952C85.3438 36.812 84.9938 36.378 84.9938 35.832C84.9938 35.174 85.6098 34.572 86.5478 34.572C87.8078 34.572 88.2558 35.426 88.3538 35.972L90.0898 35.44ZM93.5557 43V36.112H91.6937V43H93.5557ZM91.4697 33.858C91.4697 34.474 91.9877 34.992 92.6177 34.992C93.2617 34.992 93.7657 34.474 93.7657 33.858C93.7657 33.214 93.2617 32.696 92.6177 32.696C91.9877 32.696 91.4697 33.214 91.4697 33.858ZM97.4112 43V38.968C97.4112 38.212 97.8872 37.61 98.6992 37.61C99.5392 37.61 99.9172 38.17 99.9172 38.912V43H101.765V38.968C101.765 38.226 102.241 37.61 103.039 37.61C103.893 37.61 104.257 38.17 104.257 38.912V43H106.063V38.534C106.063 36.686 104.845 35.916 103.571 35.916C102.661 35.916 101.933 36.224 101.387 37.064C101.037 36.322 100.281 35.916 99.3432 35.916C98.5872 35.916 97.7052 36.28 97.3272 36.952V36.112H95.5492V43H97.4112ZM109.812 43V36.112H107.95V43H109.812ZM107.726 33.858C107.726 34.474 108.244 34.992 108.874 34.992C109.518 34.992 110.022 34.474 110.022 33.858C110.022 33.214 109.518 32.696 108.874 32.696C108.244 32.696 107.726 33.214 107.726 33.858ZM113.667 43V32.864H111.805V43H113.667ZM115.199 41.124C115.199 42.202 116.095 43.196 117.565 43.196C118.587 43.196 119.245 42.72 119.595 42.174C119.595 42.44 119.623 42.818 119.665 43H121.373C121.331 42.762 121.289 42.272 121.289 41.908V38.52C121.289 37.134 120.477 35.902 118.293 35.902C116.445 35.902 115.451 37.092 115.339 38.17L116.991 38.52C117.047 37.918 117.495 37.4 118.307 37.4C119.091 37.4 119.469 37.806 119.469 38.296C119.469 38.534 119.343 38.73 118.951 38.786L117.257 39.038C116.109 39.206 115.199 39.892 115.199 41.124ZM117.957 41.81C117.355 41.81 117.061 41.418 117.061 41.012C117.061 40.48 117.439 40.214 117.915 40.144L119.469 39.906V40.214C119.469 41.432 118.741 41.81 117.957 41.81ZM127.366 36.084C127.226 36.07 127.086 36.056 126.932 36.056C126.344 36.056 125.392 36.224 124.972 37.134V36.112H123.166V43H125.028V39.85C125.028 38.366 125.854 37.904 126.806 37.904C126.974 37.904 127.156 37.918 127.366 37.96V36.084Z" fill="#6B6D79"/>
<defs>
<linearGradient id="paint0_linear_501_735" x1="174.11" y1="10" x2="0.109862" y2="10" gradientUnits="userSpaceOnUse">
<stop stop-color="#F26526"/>
<stop offset="0.526042" stop-color="#F58025"/>
<stop offset="1" stop-color="#FFCD00"/>
</linearGradient>
</defs>
</svg>
