<svg width="18" height="18" viewBox="0 0 18 18" fill="none" xmlns="http://www.w3.org/2000/svg">
<g clip-path="url(#clip0_9_5566)">
<path d="M18 7.12511C17.9999 7.0105 17.9736 6.89744 17.923 6.7946C17.8724 6.69176 17.799 6.60188 17.7083 6.53186L9.45825 0.156857C9.32685 0.0551724 9.1654 0 8.99925 0C8.8331 0 8.67165 0.0551724 8.54025 0.156857L0.29025 6.53186C0.199802 6.60203 0.126619 6.69198 0.0763088 6.79481C0.0259982 6.89764 -0.000104635 7.01063 3.15225e-07 7.12511V17.2501C3.15225e-07 17.449 0.079018 17.6398 0.21967 17.7804C0.360323 17.9211 0.551088 18.0001 0.75 18.0001H6.75C6.84946 18.0001 6.94484 17.9606 7.01517 17.8903C7.08549 17.8199 7.125 17.7246 7.125 17.6251V14.2501C7.125 13.7528 7.32254 13.2759 7.67417 12.9243C8.02581 12.5727 8.50272 12.3751 9 12.3751C9.49728 12.3751 9.97419 12.5727 10.3258 12.9243C10.6775 13.2759 10.875 13.7528 10.875 14.2501V17.6251C10.875 17.7246 10.9145 17.8199 10.9848 17.8903C11.0552 17.9606 11.1505 18.0001 11.25 18.0001H17.25C17.4489 18.0001 17.6397 17.9211 17.7803 17.7804C17.921 17.6398 18 17.449 18 17.2501V7.12511Z" fill="white"/>
</g>
<defs>
<clipPath id="clip0_9_5566">
<rect width="18" height="18" fill="white"/>
</clipPath>
</defs>
</svg>
