<svg width="28" height="18" viewBox="0 0 28 18" fill="none" xmlns="http://www.w3.org/2000/svg">
<path fill-rule="evenodd" clip-rule="evenodd" d="M13.6001 11.5046C13.6001 8.02261 16.4655 5.19995 20.0001 5.19995C23.5347 5.19995 26.4001 8.02261 26.4001 11.5046C26.4001 12.4318 26.1976 13.3122 25.8323 14.1043C25.5836 13.9633 25.308 13.8319 25.0095 13.7103C25.3158 13.0366 25.4858 12.2904 25.4858 11.5046C25.4858 8.52022 23.0296 6.10061 20.0001 6.10061C16.9706 6.10061 14.5144 8.52022 14.5144 11.5046C14.5144 12.2904 14.6844 13.0366 14.9907 13.7103C14.6922 13.8319 14.4166 13.9638 14.1679 14.1043C13.8031 13.3122 13.6001 12.4318 13.6001 11.5046ZM17.9252 8.30969L20.2966 11.4532C20.8228 11.4465 21.3209 11.716 21.5646 12.1945C21.9143 12.8808 21.6078 13.7377 20.8799 14.1086C20.1519 14.4795 19.2785 14.2238 18.9288 13.5375C18.685 13.0591 18.7602 12.4975 19.0749 12.0757L17.9252 8.30969Z" fill="#464958"/>
<mask id="mask0" mask-type="alpha" maskUnits="userSpaceOnUse" x="13" y="5" width="14" height="10">
<path fill-rule="evenodd" clip-rule="evenodd" d="M13.6001 11.5046C13.6001 8.02261 16.4655 5.19995 20.0001 5.19995C23.5347 5.19995 26.4001 8.02261 26.4001 11.5046C26.4001 12.4318 26.1976 13.3122 25.8323 14.1043C25.5836 13.9633 25.308 13.8319 25.0095 13.7103C25.3158 13.0366 25.4858 12.2904 25.4858 11.5046C25.4858 8.52022 23.0296 6.10061 20.0001 6.10061C16.9706 6.10061 14.5144 8.52022 14.5144 11.5046C14.5144 12.2904 14.6844 13.0366 14.9907 13.7103C14.6922 13.8319 14.4166 13.9638 14.1679 14.1043C13.8031 13.3122 13.6001 12.4318 13.6001 11.5046ZM17.9252 8.30969L20.2966 11.4532C20.8228 11.4465 21.3209 11.716 21.5646 12.1945C21.9143 12.8808 21.6078 13.7377 20.8799 14.1086C20.1519 14.4795 19.2785 14.2238 18.9288 13.5375C18.685 13.0591 18.7602 12.4975 19.0749 12.0757L17.9252 8.30969Z" fill="white"/>
</mask>
<g mask="url(#mask0)">
<rect x="12" y="2" width="16" height="16" fill="#464958"/>
</g>
<path d="M1 0V11H7.5" stroke="#464958"/>
<path fill-rule="evenodd" clip-rule="evenodd" d="M6 8.46289L9 11L6 13.7974V8.46289Z" fill="#464958"/>
</svg>
