<svg width="19" height="18" viewBox="0 0 19 18" fill="none" xmlns="http://www.w3.org/2000/svg">
<g clip-path="url(#clip0_501_930)">
<mask id="mask0_501_930" style="mask-type:alpha" maskUnits="userSpaceOnUse" x="1" y="1" width="17" height="16">
<path fill-rule="evenodd" clip-rule="evenodd" d="M17.5 9C17.5 13.4183 13.9183 17 9.5 17C5.08172 17 1.5 13.4183 1.5 9C1.5 4.58172 5.08172 1 9.5 1C13.9183 1 17.5 4.58172 17.5 9ZM11.4393 12.907L11.2975 13.4874C10.8719 13.655 10.5323 13.7829 10.2786 13.8711C10.025 13.9592 9.73053 14.0032 9.39521 14.0032C8.87934 14.0032 8.47848 13.8775 8.1926 13.626C7.90673 13.3745 7.76379 13.0553 7.76379 12.6684C7.76379 12.518 7.77454 12.3643 7.79603 12.2074C7.81753 12.0505 7.85192 11.8732 7.89921 11.6754L8.42797 9.79251C8.47525 9.61195 8.51502 9.44107 8.54726 9.27987C8.5795 9.11866 8.59562 8.97142 8.59562 8.83816C8.59562 8.59742 8.54619 8.42976 8.44731 8.33519C8.34844 8.24061 8.15929 8.19333 7.87986 8.19333C7.7423 8.19333 7.60151 8.21482 7.4575 8.25781C7.31348 8.3008 7.18989 8.34164 7.08672 8.38033L7.22858 7.79998C7.57679 7.65812 7.90995 7.53667 8.22807 7.43565C8.54619 7.33463 8.8471 7.28411 9.13083 7.28411C9.6424 7.28411 10.0368 7.40771 10.3141 7.65489C10.5914 7.90208 10.73 8.22342 10.73 8.61891C10.73 8.70059 10.7203 8.8446 10.701 9.05095C10.6816 9.2573 10.6462 9.44645 10.5946 9.6184L10.0658 11.4949C10.0228 11.6453 9.98416 11.8173 9.94977 12.0107C9.91538 12.2042 9.89818 12.3503 9.89818 12.4492C9.89818 12.6985 9.95406 12.8683 10.0658 12.9586C10.1776 13.0489 10.3711 13.094 10.6462 13.094C10.7752 13.094 10.9213 13.0715 11.0847 13.0263C11.248 12.9812 11.3662 12.9414 11.4393 12.907ZM11.2039 5.86868C11.4511 5.63869 11.5747 5.36034 11.5747 5.03362C11.5747 4.70691 11.4511 4.42748 11.2039 4.19534C10.9567 3.9632 10.659 3.84714 10.3108 3.84714C9.9626 3.84714 9.66383 3.9632 9.4145 4.19534C9.16516 4.42748 9.04049 4.70691 9.04049 5.03362C9.04049 5.36034 9.16516 5.63869 9.4145 5.86868C9.66383 6.09867 9.9626 6.21366 10.3108 6.21366C10.659 6.21366 10.9567 6.09867 11.2039 5.86868Z" fill="#90929B"/>
</mask>
<g mask="url(#mask0_501_930)">
<rect x="-15.5" y="-16" width="50" height="50" fill="#464958"/>
</g>
</g>
<defs>
<clipPath id="clip0_501_930">
<rect width="18" height="18" fill="white" transform="translate(0.5)"/>
</clipPath>
</defs>
</svg>
