<svg width="375" height="454" viewBox="0 0 375 454" fill="none" xmlns="http://www.w3.org/2000/svg">
<path d="M38 33.5H339" stroke="white" stroke-linejoin="round" stroke-dasharray="3 3"/>
<path d="M38 73.5H339" stroke="white" stroke-linejoin="round" stroke-dasharray="3 3"/>
<line x1="38" y1="113" x2="339" y2="113" stroke="white" stroke-linejoin="round" stroke-dasharray="3 3"/>
<line x1="38" y1="153" x2="339" y2="153" stroke="white" stroke-linejoin="round" stroke-dasharray="3 3"/>
<line x1="38" y1="193" x2="339" y2="193" stroke="white" stroke-linejoin="round" stroke-dasharray="3 3"/>
<path d="M37 251.5H338" stroke="white" stroke-linejoin="round" stroke-dasharray="3 3"/>
<path d="M37 291.5H338" stroke="white" stroke-linejoin="round" stroke-dasharray="3 3"/>
<line x1="37" y1="331" x2="338" y2="331" stroke="white" stroke-linejoin="round" stroke-dasharray="3 3"/>
<line x1="37" y1="371" x2="338" y2="371" stroke="white" stroke-linejoin="round" stroke-dasharray="3 3"/>
<line x1="37" y1="411" x2="338" y2="411" stroke="white" stroke-linejoin="round" stroke-dasharray="3 3"/>
<rect x="167.5" y="23" width="39" height="405" rx="19.5" stroke="white"/>
<path d="M38 148.5C38 144.082 41.5817 140.5 46 140.5C50.4183 140.5 54 144.082 54 148.5V193.5H38V148.5Z" fill="url(#paint0_linear_529_18113)"/>
<path d="M38 148.5C38 144.082 41.5817 140.5 46 140.5C50.4183 140.5 54 144.082 54 148.5V193.5H38V148.5Z" stroke="white"/>
<path d="M85 148.5C85 144.082 88.5817 140.5 93 140.5C97.4183 140.5 101 144.082 101 148.5V193.5H85V148.5Z" fill="url(#paint1_linear_529_18113)"/>
<path d="M85 148.5C85 144.082 88.5817 140.5 93 140.5C97.4183 140.5 101 144.082 101 148.5V193.5H85V148.5Z" stroke="white"/>
<path d="M132 148.5C132 144.082 135.582 140.5 140 140.5C144.418 140.5 148 144.082 148 148.5V193.5H132V148.5Z" fill="url(#paint2_linear_529_18113)"/>
<path d="M132 148.5C132 144.082 135.582 140.5 140 140.5C144.418 140.5 148 144.082 148 148.5V193.5H132V148.5Z" stroke="white"/>
<path d="M179 163.5C179 159.082 182.582 155.5 187 155.5C191.418 155.5 195 159.082 195 163.5V193.5H179V163.5Z" fill="url(#paint3_linear_529_18113)"/>
<path d="M179 163.5C179 159.082 182.582 155.5 187 155.5C191.418 155.5 195 159.082 195 163.5V193.5H179V163.5Z" stroke="white"/>
<!-- MONDAY 14 -->
<!-- <path d="M50.4586 216.5V206.574H48.1766L44.9986 214.148L41.7786 206.574H39.5386V216.5H41.1766V209.22L44.2426 216.5H45.6986L48.7926 209.192V216.5H50.4586ZM42.5018 236.5L42.5018 227.428H41.0458C40.8498 228.38 39.9538 229.108 38.6518 229.136V230.284H40.8498V236.5H42.5018ZM43.9854 234.512H48.3534V236.5H50.0054L50.0054 234.512H51.5314V233.028H50.0054V227.428H47.8494L43.9854 232.692V234.512ZM48.3534 233.028H45.4974L48.3534 229.122V233.028Z" fill="white"/> -->
<!-- TUESDAY 15 -->
<!-- <path d="M96.2307 208.156V206.574H88.0967V208.156H91.3167V216.5H92.9967V208.156H96.2307ZM89.8872 236.5V227.428H88.4312C88.2352 228.38 87.3392 229.108 86.0372 229.136V230.284H88.2352V236.5H89.8872ZM91.4252 233.994C91.5372 235.422 92.8812 236.724 94.8412 236.724C96.9412 236.724 98.2572 235.296 98.2572 233.588C98.2572 231.684 96.9552 230.564 95.1492 230.564C94.5052 230.564 93.8052 230.788 93.4132 231.194L93.9732 228.898H97.8092V227.428H92.8392L91.7192 232.006L93.3012 232.58C93.6232 232.216 94.1692 231.95 94.8132 231.95C95.7372 231.95 96.5632 232.51 96.5632 233.63C96.5632 234.638 95.7932 235.282 94.8412 235.282C93.7912 235.282 93.0772 234.554 93.0072 233.588L91.4252 233.994Z" fill="white"/> -->
<!-- WEDNESDAY 16 -->
<!-- <path d="M142.591 213.882L140.225 206.574H138.475L136.151 213.826L134.163 206.574H132.399L135.213 216.5H136.935L139.343 208.996L141.751 216.5H143.487L146.273 206.574H144.537L142.591 213.882ZM136.821 236.5V227.428H135.365C135.169 228.38 134.273 229.108 132.971 229.136V230.284H135.169V236.5H136.821ZM145.4 227.666C145.008 227.414 144.308 227.218 143.468 227.218C140.654 227.218 138.596 229.206 138.596 232.496C138.596 234.82 139.912 236.71 142.222 236.71C144.126 236.71 145.666 235.45 145.666 233.56C145.666 231.698 144.392 230.494 142.586 230.494C141.62 230.494 140.752 230.844 140.276 231.572C140.43 229.808 141.662 228.674 143.37 228.674C144.112 228.674 144.588 228.856 144.924 229.038L145.4 227.666ZM140.458 233.588C140.458 232.524 141.27 231.894 142.222 231.894C143.174 231.894 143.986 232.524 143.986 233.588C143.986 234.638 143.174 235.282 142.222 235.282C141.298 235.282 140.458 234.624 140.458 233.588Z" fill="white"/> -->
<!-- THURSDAY 17 -->
<!-- <path d="M186.531 208.156V206.574H178.397V208.156H181.617V216.5H183.297V208.156H186.531ZM189.42 212.496C189.448 211.628 189.938 210.956 190.834 210.956C191.856 210.956 192.234 211.628 192.234 212.468V216.5H193.858V212.188C193.858 210.69 193.046 209.486 191.366 209.486C190.652 209.486 189.882 209.738 189.42 210.34V206.364H187.796V216.5H189.42V212.496ZM184.583 236.5V227.428H183.127C182.931 228.38 182.035 229.108 180.733 229.136V230.284H182.931V236.5H184.583ZM192.587 227.428H185.811V228.898H190.683C190.683 228.898 187.519 231.432 187.127 236.5H188.863C189.269 231.824 191.831 229.528 192.587 228.898V227.428Z" fill="white"/> -->
<!-- FRIDAY 18 -->
<!-- <path d="M232.64 216.5V212.496H236.672V210.942H232.64V208.156H237.134V206.574H230.96V216.5H232.64ZM231.285 236.5V227.428H229.829C229.633 228.38 228.737 229.108 227.435 229.136V230.284H229.633V236.5H231.285ZM236.323 231.208C235.427 231.194 234.839 230.634 234.839 229.878C234.839 229.192 235.399 228.59 236.323 228.59C237.247 228.59 237.821 229.192 237.821 229.878C237.821 230.634 237.233 231.194 236.323 231.208ZM236.323 235.296C235.231 235.296 234.629 234.652 234.629 233.91C234.629 233.168 235.231 232.51 236.323 232.51C237.429 232.51 238.031 233.168 238.031 233.91C238.031 234.652 237.429 235.296 236.323 235.296ZM236.323 236.71C238.409 236.71 239.697 235.59 239.697 234.078C239.697 233.042 238.969 232.188 238.017 231.852C238.885 231.53 239.487 230.662 239.487 229.78C239.487 228.268 238.143 227.218 236.323 227.218C234.503 227.218 233.173 228.268 233.173 229.78C233.173 230.676 233.775 231.53 234.643 231.852C233.677 232.188 232.963 233.042 232.963 234.078C232.963 235.59 234.251 236.71 236.323 236.71Z" fill="white"/> -->
<!-- SATURDAY 19 -->
<!-- <path d="M284.357 208.898C284.133 207.792 283.223 206.364 280.885 206.364C279.037 206.364 277.511 207.736 277.511 209.402C277.511 210.886 278.519 211.88 280.031 212.188L281.431 212.482C282.285 212.664 282.761 213.182 282.761 213.826C282.761 214.596 282.145 215.198 280.955 215.198C279.527 215.198 278.785 214.246 278.687 213.21L277.119 213.658C277.273 215.086 278.435 216.71 280.955 216.71C283.223 216.71 284.469 215.24 284.469 213.7C284.469 212.3 283.531 211.194 281.781 210.844L280.353 210.55C279.583 210.382 279.191 209.906 279.191 209.276C279.191 208.52 279.891 207.848 280.899 207.848C282.229 207.848 282.747 208.758 282.845 209.374L284.357 208.898ZM278.356 236.5V227.428H276.9C276.704 228.38 275.808 229.108 274.506 229.136V230.284H276.704V236.5H278.356ZM280.175 236.192C280.637 236.5 281.533 236.71 282.275 236.71C285.355 236.71 286.923 234.75 286.923 231.46C286.923 228.562 285.229 227.218 283.339 227.218C281.435 227.218 279.923 228.506 279.923 230.382C279.923 232.314 281.421 233.434 283.059 233.434C284.137 233.434 284.935 232.972 285.271 232.384C285.187 234.092 284.165 235.24 282.261 235.24C281.659 235.24 280.987 235.044 280.637 234.82L280.175 236.192ZM285.047 230.326C285.047 231.362 284.221 232.02 283.311 232.02C282.373 232.02 281.575 231.39 281.575 230.326C281.575 229.304 282.387 228.646 283.311 228.646C284.221 228.646 285.047 229.318 285.047 230.326Z" fill="white"/> -->
<!-- SUNDAY 20 -->
<!-- <path d="M331.524 208.898C331.3 207.792 330.39 206.364 328.052 206.364C326.204 206.364 324.678 207.736 324.678 209.402C324.678 210.886 325.686 211.88 327.198 212.188L328.598 212.482C329.452 212.664 329.928 213.182 329.928 213.826C329.928 214.596 329.312 215.198 328.122 215.198C326.694 215.198 325.952 214.246 325.854 213.21L324.286 213.658C324.44 215.086 325.602 216.71 328.122 216.71C330.39 216.71 331.636 215.24 331.636 213.7C331.636 212.3 330.698 211.194 328.948 210.844L327.52 210.55C326.75 210.382 326.358 209.906 326.358 209.276C326.358 208.52 327.058 207.848 328.066 207.848C329.396 207.848 329.914 208.758 330.012 209.374L331.524 208.898ZM322.118 230.83C322.104 230.676 322.076 230.508 322.076 230.368C322.076 229.43 322.594 228.688 323.658 228.688C324.68 228.688 325.184 229.36 325.184 230.102C325.184 230.76 324.834 231.306 324.022 231.81L322.524 232.748C320.942 233.728 320.396 234.946 320.368 236.5H326.934V235.016H322.44C322.566 234.568 322.93 234.246 323.364 233.98L325.128 232.888C326.22 232.216 326.878 231.25 326.878 230.074C326.878 228.52 325.688 227.218 323.686 227.218C321.628 227.218 320.452 228.632 320.452 230.2C320.452 230.382 320.48 230.592 320.494 230.718L322.118 230.83ZM329.722 231.964C329.722 230.816 329.918 229.934 330.366 229.374C330.674 228.968 331.108 228.702 331.766 228.702C332.424 228.702 332.844 228.968 333.166 229.374C333.6 229.934 333.796 230.816 333.796 231.964C333.796 233.112 333.6 233.994 333.166 234.554C332.844 234.96 332.424 235.226 331.766 235.226C331.108 235.226 330.674 234.96 330.366 234.554C329.932 233.994 329.722 233.112 329.722 231.964ZM328.056 231.964C328.056 233.168 328.252 234.302 328.868 235.226C329.456 236.108 330.408 236.71 331.766 236.71C333.124 236.71 334.062 236.108 334.65 235.226C335.266 234.302 335.462 233.168 335.462 231.964C335.462 230.76 335.266 229.626 334.65 228.702C334.062 227.82 333.124 227.218 331.766 227.218C330.408 227.218 329.456 227.82 328.868 228.702C328.252 229.626 328.056 230.76 328.056 231.964Z" fill="white"/> -->
<path d="M36 343C36 347.418 39.5817 351 44 351C48.4183 351 52 347.418 52 343V251H36V343Z" fill="url(#paint4_linear_529_18113)"/>
<path d="M36 343C36 347.418 39.5817 351 44 351C48.4183 351 52 347.418 52 343V251H36V343Z" stroke="white"/>
<path d="M83.6667 316C83.6667 320.418 87.2484 324 91.6667 324C96.085 324 99.6667 320.418 99.6667 316V251H83.6667V316Z" fill="url(#paint5_linear_529_18113)"/>
<path d="M83.6667 316C83.6667 320.418 87.2484 324 91.6667 324C96.085 324 99.6667 320.418 99.6667 316V251H83.6667V316Z" stroke="white"/>
<path d="M131.333 343C131.333 347.418 134.915 351 139.333 351C143.752 351 147.333 347.418 147.333 343V251H131.333V343Z" fill="url(#paint6_linear_529_18113)"/>
<path d="M131.333 343C131.333 347.418 134.915 351 139.333 351C143.752 351 147.333 347.418 147.333 343V251H131.333V343Z" stroke="white"/>
<path d="M179 316C179 320.418 182.582 324 187 324C191.418 324 195 320.418 195 316V251H179V316Z" fill="url(#paint7_linear_529_18113)"/>
<path d="M179 316C179 320.418 182.582 324 187 324C191.418 324 195 320.418 195 316V251H179V316Z" stroke="white"/>
<g filter="url(#filter0_f_529_18113)">
<rect width="61" height="167" transform="matrix(-1 0 0 1 43 48.5)" fill="url(#paint8_linear_529_18113)"/>
</g>
<path d="M14.212 32.83C14.198 32.676 14.17 32.508 14.17 32.368C14.17 31.43 14.688 30.688 15.752 30.688C16.774 30.688 17.278 31.36 17.278 32.102C17.278 32.76 16.928 33.306 16.116 33.81L14.618 34.748C13.036 35.728 12.49 36.946 12.462 38.5H19.028V37.016H14.534C14.66 36.568 15.024 36.246 15.458 35.98L17.222 34.888C18.314 34.216 18.972 33.25 18.972 32.074C18.972 30.52 17.782 29.218 15.78 29.218C13.722 29.218 12.546 30.632 12.546 32.2C12.546 32.382 12.574 32.592 12.588 32.718L14.212 32.83ZM21.8155 33.964C21.8155 32.816 22.0115 31.934 22.4595 31.374C22.7675 30.968 23.2015 30.702 23.8595 30.702C24.5175 30.702 24.9375 30.968 25.2595 31.374C25.6935 31.934 25.8895 32.816 25.8895 33.964C25.8895 35.112 25.6935 35.994 25.2595 36.554C24.9375 36.96 24.5175 37.226 23.8595 37.226C23.2015 37.226 22.7675 36.96 22.4595 36.554C22.0255 35.994 21.8155 35.112 21.8155 33.964ZM20.1495 33.964C20.1495 35.168 20.3455 36.302 20.9615 37.226C21.5495 38.108 22.5015 38.71 23.8595 38.71C25.2175 38.71 26.1555 38.108 26.7435 37.226C27.3595 36.302 27.5555 35.168 27.5555 33.964C27.5555 32.76 27.3595 31.626 26.7435 30.702C26.1555 29.82 25.2175 29.218 23.8595 29.218C22.5015 29.218 21.5495 29.82 20.9615 30.702C20.3455 31.626 20.1495 32.76 20.1495 33.964ZM30.4425 33.964C30.4425 32.816 30.6385 31.934 31.0865 31.374C31.3945 30.968 31.8285 30.702 32.4865 30.702C33.1445 30.702 33.5645 30.968 33.8865 31.374C34.3205 31.934 34.5165 32.816 34.5165 33.964C34.5165 35.112 34.3205 35.994 33.8865 36.554C33.5645 36.96 33.1445 37.226 32.4865 37.226C31.8285 37.226 31.3945 36.96 31.0865 36.554C30.6525 35.994 30.4425 35.112 30.4425 33.964ZM28.7765 33.964C28.7765 35.168 28.9725 36.302 29.5885 37.226C30.1765 38.108 31.1285 38.71 32.4865 38.71C33.8445 38.71 34.7825 38.108 35.3705 37.226C35.9865 36.302 36.1825 35.168 36.1825 33.964C36.1825 32.76 35.9865 31.626 35.3705 30.702C34.7825 29.82 33.8445 29.218 32.4865 29.218C31.1285 29.218 30.1765 29.82 29.5885 30.702C28.9725 31.626 28.7765 32.76 28.7765 33.964Z" fill="white"/>
<path d="M16.242 77.5V68.428H14.786C14.59 69.38 13.694 70.108 12.392 70.136V71.284H14.59V77.5H16.242ZM17.78 74.994C17.892 76.422 19.236 77.724 21.196 77.724C23.296 77.724 24.612 76.296 24.612 74.588C24.612 72.684 23.31 71.564 21.504 71.564C20.86 71.564 20.16 71.788 19.768 72.194L20.328 69.898H24.164V68.428H19.194L18.074 73.006L19.656 73.58C19.978 73.216 20.524 72.95 21.168 72.95C22.092 72.95 22.918 73.51 22.918 74.63C22.918 75.638 22.148 76.282 21.196 76.282C20.146 76.282 19.432 75.554 19.362 74.588L17.78 74.994ZM27.3116 72.964C27.3116 71.816 27.5076 70.934 27.9556 70.374C28.2636 69.968 28.6976 69.702 29.3556 69.702C30.0136 69.702 30.4336 69.968 30.7556 70.374C31.1896 70.934 31.3856 71.816 31.3856 72.964C31.3856 74.112 31.1896 74.994 30.7556 75.554C30.4336 75.96 30.0136 76.226 29.3556 76.226C28.6976 76.226 28.2636 75.96 27.9556 75.554C27.5216 74.994 27.3116 74.112 27.3116 72.964ZM25.6456 72.964C25.6456 74.168 25.8416 75.302 26.4576 76.226C27.0456 77.108 27.9976 77.71 29.3556 77.71C30.7136 77.71 31.6516 77.108 32.2396 76.226C32.8556 75.302 33.0516 74.168 33.0516 72.964C33.0516 71.76 32.8556 70.626 32.2396 69.702C31.6516 68.82 30.7136 68.218 29.3556 68.218C27.9976 68.218 27.0456 68.82 26.4576 69.702C25.8416 70.626 25.6456 71.76 25.6456 72.964Z" fill="white"/>
<path d="M16.242 116.5V107.428H14.786C14.59 108.38 13.694 109.108 12.392 109.136V110.284H14.59V116.5H16.242ZM19.669 111.964C19.669 110.816 19.865 109.934 20.313 109.374C20.621 108.968 21.055 108.702 21.713 108.702C22.371 108.702 22.791 108.968 23.113 109.374C23.547 109.934 23.743 110.816 23.743 111.964C23.743 113.112 23.547 113.994 23.113 114.554C22.791 114.96 22.371 115.226 21.713 115.226C21.055 115.226 20.621 114.96 20.313 114.554C19.879 113.994 19.669 113.112 19.669 111.964ZM18.003 111.964C18.003 113.168 18.199 114.302 18.815 115.226C19.403 116.108 20.355 116.71 21.713 116.71C23.071 116.71 24.009 116.108 24.597 115.226C25.213 114.302 25.409 113.168 25.409 111.964C25.409 110.76 25.213 109.626 24.597 108.702C24.009 107.82 23.071 107.218 21.713 107.218C20.355 107.218 19.403 107.82 18.815 108.702C18.199 109.626 18.003 110.76 18.003 111.964ZM28.296 111.964C28.296 110.816 28.492 109.934 28.94 109.374C29.248 108.968 29.682 108.702 30.34 108.702C30.998 108.702 31.418 108.968 31.74 109.374C32.174 109.934 32.37 110.816 32.37 111.964C32.37 113.112 32.174 113.994 31.74 114.554C31.418 114.96 30.998 115.226 30.34 115.226C29.682 115.226 29.248 114.96 28.94 114.554C28.506 113.994 28.296 113.112 28.296 111.964ZM26.63 111.964C26.63 113.168 26.826 114.302 27.442 115.226C28.03 116.108 28.982 116.71 30.34 116.71C31.698 116.71 32.636 116.108 33.224 115.226C33.84 114.302 34.036 113.168 34.036 111.964C34.036 110.76 33.84 109.626 33.224 108.702C32.636 107.82 31.698 107.218 30.34 107.218C28.982 107.218 28.03 107.82 27.442 108.702C26.826 109.626 26.63 110.76 26.63 111.964Z" fill="white"/>
<path d="M12.448 152.994C12.56 154.422 13.904 155.724 15.864 155.724C17.964 155.724 19.28 154.296 19.28 152.588C19.28 150.684 17.978 149.564 16.172 149.564C15.528 149.564 14.828 149.788 14.436 150.194L14.996 147.898H18.832V146.428H13.862L12.742 151.006L14.324 151.58C14.646 151.216 15.192 150.95 15.836 150.95C16.76 150.95 17.586 151.51 17.586 152.63C17.586 153.638 16.816 154.282 15.864 154.282C14.814 154.282 14.1 153.554 14.03 152.588L12.448 152.994ZM21.9796 150.964C21.9796 149.816 22.1756 148.934 22.6236 148.374C22.9316 147.968 23.3656 147.702 24.0236 147.702C24.6816 147.702 25.1016 147.968 25.4236 148.374C25.8576 148.934 26.0536 149.816 26.0536 150.964C26.0536 152.112 25.8576 152.994 25.4236 153.554C25.1016 153.96 24.6816 154.226 24.0236 154.226C23.3656 154.226 22.9316 153.96 22.6236 153.554C22.1896 152.994 21.9796 152.112 21.9796 150.964ZM20.3136 150.964C20.3136 152.168 20.5096 153.302 21.1256 154.226C21.7136 155.108 22.6656 155.71 24.0236 155.71C25.3816 155.71 26.3196 155.108 26.9076 154.226C27.5236 153.302 27.7196 152.168 27.7196 150.964C27.7196 149.76 27.5236 148.626 26.9076 147.702C26.3196 146.82 25.3816 146.218 24.0236 146.218C22.6656 146.218 21.7136 146.82 21.1256 147.702C20.5096 148.626 20.3136 149.76 20.3136 150.964Z" fill="white"/>
<path d="M14.296 189.964C14.296 188.816 14.492 187.934 14.94 187.374C15.248 186.968 15.682 186.702 16.34 186.702C16.998 186.702 17.418 186.968 17.74 187.374C18.174 187.934 18.37 188.816 18.37 189.964C18.37 191.112 18.174 191.994 17.74 192.554C17.418 192.96 16.998 193.226 16.34 193.226C15.682 193.226 15.248 192.96 14.94 192.554C14.506 191.994 14.296 191.112 14.296 189.964ZM12.63 189.964C12.63 191.168 12.826 192.302 13.442 193.226C14.03 194.108 14.982 194.71 16.34 194.71C17.698 194.71 18.636 194.108 19.224 193.226C19.84 192.302 20.036 191.168 20.036 189.964C20.036 188.76 19.84 187.626 19.224 186.702C18.636 185.82 17.698 185.218 16.34 185.218C14.982 185.218 14.03 185.82 13.442 186.702C12.826 187.626 12.63 188.76 12.63 189.964Z" fill="white"/>
<g filter="url(#filter1_f_529_18113)">
<rect x="327" y="18.5" width="71" height="196" fill="url(#paint9_linear_529_18113)"/>
</g>
<g filter="url(#filter2_f_529_18113)">
<rect width="61" height="167" transform="matrix(-1 0 0 1 43 235.5)" fill="url(#paint10_linear_529_18113)"/>
</g>
<g filter="url(#filter3_f_529_18113)">
<rect width="61" height="200" transform="matrix(-1 0 0 1 393 234.5)" fill="url(#paint11_linear_529_18113)"/>
</g>
<path d="M12.296 254.964C12.296 253.816 12.492 252.934 12.94 252.374C13.248 251.968 13.682 251.702 14.34 251.702C14.998 251.702 15.418 251.968 15.74 252.374C16.174 252.934 16.37 253.816 16.37 254.964C16.37 256.112 16.174 256.994 15.74 257.554C15.418 257.96 14.998 258.226 14.34 258.226C13.682 258.226 13.248 257.96 12.94 257.554C12.506 256.994 12.296 256.112 12.296 254.964ZM10.63 254.964C10.63 256.168 10.826 257.302 11.442 258.226C12.03 259.108 12.982 259.71 14.34 259.71C15.698 259.71 16.636 259.108 17.224 258.226C17.84 257.302 18.036 256.168 18.036 254.964C18.036 253.76 17.84 252.626 17.224 251.702C16.636 250.82 15.698 250.218 14.34 250.218C12.982 250.218 12.03 250.82 11.442 251.702C10.826 252.626 10.63 253.76 10.63 254.964Z" fill="white"/>
<path d="M10.448 296.144C10.56 297.572 11.904 298.874 13.864 298.874C15.964 298.874 17.28 297.446 17.28 295.738C17.28 293.834 15.978 292.714 14.172 292.714C13.528 292.714 12.828 292.938 12.436 293.344L12.996 291.048H16.832V289.578H11.862L10.742 294.156L12.324 294.73C12.646 294.366 13.192 294.1 13.836 294.1C14.76 294.1 15.586 294.66 15.586 295.78C15.586 296.788 14.816 297.432 13.864 297.432C12.814 297.432 12.1 296.704 12.03 295.738L10.448 296.144ZM19.9796 294.114C19.9796 292.966 20.1756 292.084 20.6236 291.524C20.9316 291.118 21.3656 290.852 22.0236 290.852C22.6816 290.852 23.1016 291.118 23.4236 291.524C23.8576 292.084 24.0536 292.966 24.0536 294.114C24.0536 295.262 23.8576 296.144 23.4236 296.704C23.1016 297.11 22.6816 297.376 22.0236 297.376C21.3656 297.376 20.9316 297.11 20.6236 296.704C20.1896 296.144 19.9796 295.262 19.9796 294.114ZM18.3136 294.114C18.3136 295.318 18.5096 296.452 19.1256 297.376C19.7136 298.258 20.6656 298.86 22.0236 298.86C23.3816 298.86 24.3196 298.258 24.9076 297.376C25.5236 296.452 25.7196 295.318 25.7196 294.114C25.7196 292.91 25.5236 291.776 24.9076 290.852C24.3196 289.97 23.3816 289.368 22.0236 289.368C20.6656 289.368 19.7136 289.97 19.1256 290.852C18.5096 291.776 18.3136 292.91 18.3136 294.114Z" fill="white"/>
<path d="M14.242 337.65V328.578H12.786C12.59 329.53 11.694 330.258 10.392 330.286V331.434H12.59V337.65H14.242ZM17.669 333.114C17.669 331.966 17.865 331.084 18.313 330.524C18.621 330.118 19.055 329.852 19.713 329.852C20.371 329.852 20.791 330.118 21.113 330.524C21.547 331.084 21.743 331.966 21.743 333.114C21.743 334.262 21.547 335.144 21.113 335.704C20.791 336.11 20.371 336.376 19.713 336.376C19.055 336.376 18.621 336.11 18.313 335.704C17.879 335.144 17.669 334.262 17.669 333.114ZM16.003 333.114C16.003 334.318 16.199 335.452 16.815 336.376C17.403 337.258 18.355 337.86 19.713 337.86C21.071 337.86 22.009 337.258 22.597 336.376C23.213 335.452 23.409 334.318 23.409 333.114C23.409 331.91 23.213 330.776 22.597 329.852C22.009 328.97 21.071 328.368 19.713 328.368C18.355 328.368 17.403 328.97 16.815 329.852C16.199 330.776 16.003 331.91 16.003 333.114ZM26.296 333.114C26.296 331.966 26.492 331.084 26.94 330.524C27.248 330.118 27.682 329.852 28.34 329.852C28.998 329.852 29.418 330.118 29.74 330.524C30.174 331.084 30.37 331.966 30.37 333.114C30.37 334.262 30.174 335.144 29.74 335.704C29.418 336.11 28.998 336.376 28.34 336.376C27.682 336.376 27.248 336.11 26.94 335.704C26.506 335.144 26.296 334.262 26.296 333.114ZM24.63 333.114C24.63 334.318 24.826 335.452 25.442 336.376C26.03 337.258 26.982 337.86 28.34 337.86C29.698 337.86 30.636 337.258 31.224 336.376C31.84 335.452 32.036 334.318 32.036 333.114C32.036 331.91 31.84 330.776 31.224 329.852C30.636 328.97 29.698 328.368 28.34 328.368C26.982 328.368 26.03 328.97 25.442 329.852C24.826 330.776 24.63 331.91 24.63 333.114Z" fill="white"/>
<path d="M14.242 376.65V367.578H12.786C12.59 368.53 11.694 369.258 10.392 369.286V370.434H12.59V376.65H14.242ZM15.78 374.144C15.892 375.572 17.236 376.874 19.196 376.874C21.296 376.874 22.612 375.446 22.612 373.738C22.612 371.834 21.31 370.714 19.504 370.714C18.86 370.714 18.16 370.938 17.768 371.344L18.328 369.048H22.164V367.578H17.194L16.074 372.156L17.656 372.73C17.978 372.366 18.524 372.1 19.168 372.1C20.092 372.1 20.918 372.66 20.918 373.78C20.918 374.788 20.148 375.432 19.196 375.432C18.146 375.432 17.432 374.704 17.362 373.738L15.78 374.144ZM25.3116 372.114C25.3116 370.966 25.5076 370.084 25.9556 369.524C26.2636 369.118 26.6976 368.852 27.3556 368.852C28.0136 368.852 28.4336 369.118 28.7556 369.524C29.1896 370.084 29.3856 370.966 29.3856 372.114C29.3856 373.262 29.1896 374.144 28.7556 374.704C28.4336 375.11 28.0136 375.376 27.3556 375.376C26.6976 375.376 26.2636 375.11 25.9556 374.704C25.5216 374.144 25.3116 373.262 25.3116 372.114ZM23.6456 372.114C23.6456 373.318 23.8416 374.452 24.4576 375.376C25.0456 376.258 25.9976 376.86 27.3556 376.86C28.7136 376.86 29.6516 376.258 30.2396 375.376C30.8556 374.452 31.0516 373.318 31.0516 372.114C31.0516 370.91 30.8556 369.776 30.2396 368.852C29.6516 367.97 28.7136 367.368 27.3556 367.368C25.9976 367.368 25.0456 367.97 24.4576 368.852C23.8416 369.776 23.6456 370.91 23.6456 372.114Z" fill="white"/>
<path d="M12.212 409.98C12.198 409.826 12.17 409.658 12.17 409.518C12.17 408.58 12.688 407.838 13.752 407.838C14.774 407.838 15.278 408.51 15.278 409.252C15.278 409.91 14.928 410.456 14.116 410.96L12.618 411.898C11.036 412.878 10.49 414.096 10.462 415.65H17.028V414.166H12.534C12.66 413.718 13.024 413.396 13.458 413.13L15.222 412.038C16.314 411.366 16.972 410.4 16.972 409.224C16.972 407.67 15.782 406.368 13.78 406.368C11.722 406.368 10.546 407.782 10.546 409.35C10.546 409.532 10.574 409.742 10.588 409.868L12.212 409.98ZM19.8155 411.114C19.8155 409.966 20.0115 409.084 20.4595 408.524C20.7675 408.118 21.2015 407.852 21.8595 407.852C22.5175 407.852 22.9375 408.118 23.2595 408.524C23.6935 409.084 23.8895 409.966 23.8895 411.114C23.8895 412.262 23.6935 413.144 23.2595 413.704C22.9375 414.11 22.5175 414.376 21.8595 414.376C21.2015 414.376 20.7675 414.11 20.4595 413.704C20.0255 413.144 19.8155 412.262 19.8155 411.114ZM18.1495 411.114C18.1495 412.318 18.3455 413.452 18.9615 414.376C19.5495 415.258 20.5015 415.86 21.8595 415.86C23.2175 415.86 24.1555 415.258 24.7435 414.376C25.3595 413.452 25.5555 412.318 25.5555 411.114C25.5555 409.91 25.3595 408.776 24.7435 407.852C24.1555 406.97 23.2175 406.368 21.8595 406.368C20.5015 406.368 19.5495 406.97 18.9615 407.852C18.3455 408.776 18.1495 409.91 18.1495 411.114ZM28.4425 411.114C28.4425 409.966 28.6385 409.084 29.0865 408.524C29.3945 408.118 29.8285 407.852 30.4865 407.852C31.1445 407.852 31.5645 408.118 31.8865 408.524C32.3205 409.084 32.5165 409.966 32.5165 411.114C32.5165 412.262 32.3205 413.144 31.8865 413.704C31.5645 414.11 31.1445 414.376 30.4865 414.376C29.8285 414.376 29.3945 414.11 29.0865 413.704C28.6525 413.144 28.4425 412.262 28.4425 411.114ZM26.7765 411.114C26.7765 412.318 26.9725 413.452 27.5885 414.376C28.1765 415.258 29.1285 415.86 30.4865 415.86C31.8445 415.86 32.7825 415.258 33.3705 414.376C33.9865 413.452 34.1825 412.318 34.1825 411.114C34.1825 409.91 33.9865 408.776 33.3705 407.852C32.7825 406.97 31.8445 406.368 30.4865 406.368C29.1285 406.368 28.1765 406.97 27.5885 407.852C26.9725 408.776 26.7765 409.91 26.7765 411.114Z" fill="white"/>
<defs>
<filter id="filter0_f_529_18113" x="-37" y="29.5" width="99" height="205" filterUnits="userSpaceOnUse" color-interpolation-filters="sRGB">
<feFlood flood-opacity="0" result="BackgroundImageFix"/>
<feBlend mode="normal" in="SourceGraphic" in2="BackgroundImageFix" result="shape"/>
<feGaussianBlur stdDeviation="9.5" result="effect1_foregroundBlur_529_18113"/>
</filter>
<filter id="filter1_f_529_18113" x="309" y="0.5" width="107" height="232" filterUnits="userSpaceOnUse" color-interpolation-filters="sRGB">
<feFlood flood-opacity="0" result="BackgroundImageFix"/>
<feBlend mode="normal" in="SourceGraphic" in2="BackgroundImageFix" result="shape"/>
<feGaussianBlur stdDeviation="9" result="effect1_foregroundBlur_529_18113"/>
</filter>
<filter id="filter2_f_529_18113" x="-37" y="216.5" width="99" height="205" filterUnits="userSpaceOnUse" color-interpolation-filters="sRGB">
<feFlood flood-opacity="0" result="BackgroundImageFix"/>
<feBlend mode="normal" in="SourceGraphic" in2="BackgroundImageFix" result="shape"/>
<feGaussianBlur stdDeviation="9.5" result="effect1_foregroundBlur_529_18113"/>
</filter>
<filter id="filter3_f_529_18113" x="313" y="215.5" width="99" height="238" filterUnits="userSpaceOnUse" color-interpolation-filters="sRGB">
<feFlood flood-opacity="0" result="BackgroundImageFix"/>
<feBlend mode="normal" in="SourceGraphic" in2="BackgroundImageFix" result="shape"/>
<feGaussianBlur stdDeviation="9.5" result="effect1_foregroundBlur_529_18113"/>
</filter>
<linearGradient id="paint0_linear_529_18113" x1="46" y1="140.5" x2="46" y2="193.5" gradientUnits="userSpaceOnUse">
<stop stop-color="white"/>
<stop offset="1" stop-color="#FDDDC9"/>
</linearGradient>
<linearGradient id="paint1_linear_529_18113" x1="93" y1="140.5" x2="93" y2="193.5" gradientUnits="userSpaceOnUse">
<stop stop-color="white"/>
<stop offset="1" stop-color="#FDDDC9"/>
</linearGradient>
<linearGradient id="paint2_linear_529_18113" x1="140" y1="140.5" x2="140" y2="193.5" gradientUnits="userSpaceOnUse">
<stop stop-color="white"/>
<stop offset="1" stop-color="#FDDDC9"/>
</linearGradient>
<linearGradient id="paint3_linear_529_18113" x1="187" y1="155.5" x2="187" y2="193.5" gradientUnits="userSpaceOnUse">
<stop stop-color="white"/>
<stop offset="1" stop-color="#FDDDC9"/>
</linearGradient>
<linearGradient id="paint4_linear_529_18113" x1="44" y1="351" x2="44" y2="251" gradientUnits="userSpaceOnUse">
<stop stop-color="white"/>
<stop offset="1" stop-color="#D8CFCF"/>
</linearGradient>
<linearGradient id="paint5_linear_529_18113" x1="91.6667" y1="324" x2="91.6667" y2="251" gradientUnits="userSpaceOnUse">
<stop stop-color="white"/>
<stop offset="1" stop-color="#D8CFCF"/>
</linearGradient>
<linearGradient id="paint6_linear_529_18113" x1="139.333" y1="351" x2="139.333" y2="251" gradientUnits="userSpaceOnUse">
<stop stop-color="white"/>
<stop offset="1" stop-color="#D8CFCF"/>
</linearGradient>
<linearGradient id="paint7_linear_529_18113" x1="187" y1="324" x2="187" y2="251" gradientUnits="userSpaceOnUse">
<stop stop-color="white"/>
<stop offset="1" stop-color="#D8CFCF"/>
</linearGradient>
<linearGradient id="paint8_linear_529_18113" x1="57.319" y1="167" x2="56.8436" y2="23.4998" gradientUnits="userSpaceOnUse">
<stop offset="0.0712398" stop-color="#F17233"/>
<stop offset="0.43772" stop-color="#F3722E"/>
<stop offset="0.736033" stop-color="#F3722A"/>
<stop offset="1" stop-color="#F37227"/>
</linearGradient>
<linearGradient id="paint9_linear_529_18113" x1="363.459" y1="187.246" x2="363.459" y2="26.0385" gradientUnits="userSpaceOnUse">
<stop stop-color="#F67727"/>
<stop offset="0.259122" stop-color="#F57826"/>
<stop offset="0.608534" stop-color="#F57B27"/>
<stop offset="1" stop-color="#F57E26"/>
</linearGradient>
<linearGradient id="paint10_linear_529_18113" x1="57.319" y1="167" x2="56.8436" y2="23.4998" gradientUnits="userSpaceOnUse">
<stop offset="0.0712398" stop-color="#5A1414"/>
<stop offset="0.43772" stop-color="#541414"/>
<stop offset="0.736033" stop-color="#4F1414"/>
<stop offset="1" stop-color="#4C1514"/>
</linearGradient>
<linearGradient id="paint11_linear_529_18113" x1="57.319" y1="200" x2="56.6371" y2="28.1443" gradientUnits="userSpaceOnUse">
<stop offset="0.0712398" stop-color="#461313"/>
<stop offset="0.43772" stop-color="#411212"/>
<stop offset="0.736033" stop-color="#3D1212"/>
<stop offset="1" stop-color="#391313"/>
</linearGradient>
</defs>
</svg>
