<svg width="31" height="35" viewBox="0 0 31 35" fill="none" xmlns="http://www.w3.org/2000/svg">
<path d="M1.88989 1.79004H29.2765V33.39H1.88989V1.79004Z" stroke="#F58025" stroke-width="2.10666" stroke-linecap="round" stroke-linejoin="round"/>
<path d="M6.10315 6.00293H10.3165" stroke="#F58025" stroke-width="2.10666" stroke-linecap="round" stroke-linejoin="round"/>
<path d="M1.88965 10.2168H29.2763" stroke="#F58025" stroke-width="2.10666" stroke-linecap="round" stroke-linejoin="round"/>
<path d="M8.20966 21.803C8.20966 23.7585 8.98649 25.634 10.3693 27.0167C11.752 28.3995 13.6275 29.1763 15.583 29.1763C17.5385 29.1763 19.4139 28.3995 20.7967 27.0167C22.1795 25.634 22.9563 23.7585 22.9563 21.803C22.9563 19.8475 22.1795 17.972 20.7967 16.5893C19.4139 15.2065 17.5385 14.4297 15.583 14.4297C13.6275 14.4297 11.752 15.2065 10.3693 16.5893C8.98649 17.972 8.20966 19.8475 8.20966 21.803V21.803Z" stroke="#F58025" stroke-width="2.10666" stroke-linecap="round" stroke-linejoin="round"/>
<path d="M24.0098 5.47656C24.114 5.47656 24.2158 5.50745 24.3024 5.56532C24.389 5.62319 24.4565 5.70545 24.4964 5.80168C24.5363 5.89792 24.5467 6.00381 24.5264 6.10598C24.506 6.20814 24.4559 6.30198 24.3822 6.37564C24.3086 6.44929 24.2147 6.49945 24.1126 6.51977C24.0104 6.5401 23.9045 6.52967 23.8083 6.4898C23.712 6.44994 23.6298 6.38244 23.5719 6.29583C23.514 6.20922 23.4832 6.10739 23.4832 6.00323C23.4832 5.86355 23.5386 5.72959 23.6374 5.63082C23.7362 5.53205 23.8701 5.47656 24.0098 5.47656Z" stroke="#F58025" stroke-width="2.10666" stroke-linecap="round" stroke-linejoin="round"/>
<path d="M17.6897 5.47656C17.7939 5.47656 17.8957 5.50745 17.9823 5.56532C18.0689 5.62319 18.1364 5.70545 18.1763 5.80168C18.2161 5.89792 18.2266 6.00381 18.2062 6.10598C18.1859 6.20814 18.1358 6.30198 18.0621 6.37564C17.9884 6.44929 17.8946 6.49945 17.7924 6.51977C17.6903 6.5401 17.5844 6.52967 17.4881 6.4898C17.3919 6.44994 17.3097 6.38244 17.2518 6.29583C17.1939 6.20922 17.163 6.10739 17.163 6.00323C17.163 5.86355 17.2185 5.72959 17.3173 5.63082C17.4161 5.53205 17.55 5.47656 17.6897 5.47656" stroke="#F58025" stroke-width="2.10666" stroke-linecap="round" stroke-linejoin="round"/>
<path d="M12.4229 21.8036C12.4229 20.9655 12.7558 20.1617 13.3485 19.5691C13.9411 18.9765 14.7448 18.6436 15.5829 18.6436" stroke="#F58025" stroke-width="2.10666" stroke-linecap="round" stroke-linejoin="round"/>
</svg>
