<svg width="11" height="20" viewBox="0 0 11 20" fill="none" xmlns="http://www.w3.org/2000/svg">
<path d="M4.55998 12C4.55998 12 1.55998 12.71 0.859979 12.79C0.715345 12.8159 0.566267 12.7975 0.432241 12.7373C0.298215 12.6771 0.185479 12.5778 0.108774 12.4525C0.0320696 12.3272 -0.00503319 12.1816 0.00231839 12.0349C0.00966997 11.8881 0.0611337 11.747 0.149979 11.63C0.459979 11.21 0.729979 10.74 1.00998 10.3L2.72998 7.52998L4.72998 4.31998C5.29998 3.40998 5.86998 2.49998 6.42998 1.58998C6.67998 1.18998 6.91998 0.779984 7.18998 0.389984C7.27354 0.224244 7.41951 0.0984791 7.59579 0.0403456C7.77206 -0.017788 7.96421 -0.0035303 8.12998 0.0799836C8.27927 0.155208 8.39724 0.280702 8.46309 0.434363C8.52895 0.588023 8.53847 0.759993 8.48998 0.919984C8.36998 1.37998 6.64998 7.67998 6.64998 7.67998C6.64998 7.67998 9.71998 6.98998 10.05 6.92998C10.84 6.78998 11.05 7.56998 10.66 8.07998C10.27 8.58998 4.49998 18.8 3.95998 19.46C3.85921 19.6209 3.70802 19.744 3.52998 19.81C3.37102 19.8554 3.20136 19.8455 3.04877 19.7819C2.89617 19.7183 2.76968 19.6048 2.68998 19.46C2.61516 19.267 2.61516 19.053 2.68998 18.86L2.98998 17.71L3.88998 14.39C4.10998 13.62 4.31998 12.85 4.53998 12.08L4.55998 12Z" fill="white"/>
</svg>
