<svg width="38" height="17" viewBox="0 0 38 17" fill="none" xmlns="http://www.w3.org/2000/svg">
<path d="M36.7109 10.2666H0.622193C0.278102 10.2666 0 10.4752 0 10.7332V16.3332C0 16.5913 0.278102 16.7999 0.622193 16.7999H36.7108C37.0549 16.7999 37.333 16.5913 37.333 16.3332V10.7332C37.3331 10.4752 37.055 10.2666 36.7109 10.2666ZM36.0886 15.8666H1.24446V11.1999H3.11111L3.11046 12.1333C3.11046 12.3909 3.38856 12.5999 3.73265 12.5999C4.07608 12.5999 4.35484 12.3914 4.35484 12.1333L4.3555 11.1999H6.84435V13.0666C6.84435 13.3247 7.12245 13.5332 7.46654 13.5332C7.81063 13.5332 8.08873 13.3247 8.08873 13.0666V11.1999H10.5776V12.1333C10.5776 12.3914 10.8557 12.5999 11.1998 12.5999C11.5439 12.5999 11.822 12.3914 11.822 12.1333V11.1999H14.3108V13.0666C14.3108 13.3247 14.5889 13.5332 14.933 13.5332C15.2771 13.5332 15.5552 13.3247 15.5552 13.0666V11.1999H18.044V12.1333C18.044 12.3914 18.3221 12.5999 18.6662 12.5999C19.0103 12.5999 19.2884 12.3914 19.2884 12.1333V11.1999H21.7773V13.0666C21.7773 13.3247 22.0554 13.5332 22.3995 13.5332C22.7436 13.5332 23.0217 13.3247 23.0217 13.0666V11.1999H25.5105V12.1333C25.5105 12.3914 25.7886 12.5999 26.1327 12.5999C26.4768 12.5999 26.7549 12.3914 26.7549 12.1333V11.1999H29.2437V13.0666C29.2437 13.3247 29.5218 13.5332 29.8659 13.5332C30.21 13.5332 30.4881 13.3247 30.4881 13.0666V11.1999H32.9782L32.9776 12.1333C32.9776 12.3909 33.2557 12.5999 33.5998 12.5999C33.9432 12.5999 34.2219 12.3914 34.2219 12.1333L34.2226 11.1999H36.088V15.8666H36.0886Z" fill="black"/>
<path d="M0.622193 0C0.278102 0 0 0.208576 0 0.466645V8.39994C0 8.65801 0.278102 8.86658 0.622193 8.86658C0.966285 8.86658 1.24439 8.65801 1.24439 8.39994V4.66661V0.466645C1.24446 0.208576 0.966285 0 0.622193 0Z" fill="#F15822"/>
<path d="M36.7101 0C36.366 0 36.0879 0.208576 36.0879 0.466645V4.66661V8.39994C36.0879 8.65801 36.366 8.86658 36.7101 8.86658C37.0542 8.86658 37.3323 8.65801 37.3323 8.39994V0.466645C37.3323 0.208576 37.0542 0 36.7101 0Z" fill="#F15822"/>
<path d="M34.7098 4.36754L31.8208 1.56756C31.6646 1.41635 31.4083 1.36177 31.18 1.42756C30.9516 1.49477 30.7992 1.6702 30.7992 1.8667V4.20003H6.53265V1.86626C6.53265 1.66977 6.38018 1.49433 6.15188 1.42761C5.92351 1.36089 5.66779 1.41596 5.51102 1.56761L2.62208 4.36803C2.53312 4.45438 2.48828 4.56075 2.48828 4.66667C2.48828 4.7726 2.53305 4.87902 2.62208 4.96581L5.51102 7.76579C5.62302 7.87407 5.78664 7.9333 5.95464 7.9333C6.02063 7.9333 6.0872 7.92395 6.1513 7.9053C6.37967 7.83809 6.53206 7.66265 6.53206 7.46665V5.13332H30.7986V7.46665C30.7986 7.66315 30.951 7.83858 31.1793 7.9053C31.2434 7.92395 31.31 7.9333 31.376 7.9333C31.544 7.9333 31.7076 7.87402 31.8203 7.76579L34.7092 4.96581C34.7988 4.87902 34.8436 4.7731 34.8436 4.66667C34.8436 4.56025 34.7987 4.45438 34.7098 4.36754ZM5.37722 6.17773L3.81791 4.66667L5.37722 3.15562V6.17773ZM31.9546 6.17773V3.15562L33.5139 4.66667L31.9546 6.17773Z" fill="#F15822"/>
</svg>
