<svg width="18" height="18" viewBox="0 0 18 18" fill="none" xmlns="http://www.w3.org/2000/svg">
<g clip-path="url(#clip0_507_1136)">
<mask id="mask0_507_1136" style="mask-type:alpha" maskUnits="userSpaceOnUse" x="1" y="7" width="16" height="4">
<path fill-rule="evenodd" clip-rule="evenodd" d="M3 7C1.9 7 1 7.9 1 9C1 10.1 1.9 11 3 11C4.1 11 5 10.1 5 9C5 7.9 4.1 7 3 7ZM15 7C13.9 7 13 7.9 13 9C13 10.1 13.9 11 15 11C16.1 11 17 10.1 17 9C17 7.9 16.1 7 15 7ZM7 9C7 7.9 7.9 7 9 7C10.1 7 11 7.9 11 9C11 10.1 10.1 11 9 11C7.9 11 7 10.1 7 9Z" fill="white"/>
</mask>
<g mask="url(#mask0_507_1136)">
<rect x="-16" y="-16" width="50" height="50" fill="#464958"/>
</g>
</g>
<defs>
<clipPath id="clip0_507_1136">
<rect width="18" height="18" fill="white"/>
</clipPath>
</defs>
</svg>
