<svg width="28" height="28" viewBox="0 0 28 28" fill="none" xmlns="http://www.w3.org/2000/svg">
<path d="M20.0667 7.93327V11.3999M18.3334 9.66665H21.8M25.2667 14.8665V18.3332M23.5333 16.5999H27M19.1999 25.2667C16.2118 25.2667 13.3461 24.0796 11.2332 21.9667C9.12033 19.8538 7.93331 16.9881 7.93331 14C7.93331 11.0119 9.12033 8.14617 11.2332 6.03326C13.3461 3.92035 16.2118 2.73333 19.1999 2.73333C19.2677 2.73102 19.3328 2.70617 19.3849 2.66272C19.437 2.61927 19.4731 2.5597 19.4876 2.49342C19.502 2.42714 19.494 2.35794 19.4647 2.29675C19.4354 2.23556 19.3866 2.18588 19.3259 2.15556C17.6534 1.39461 15.8374 1.00059 14 1C10.5522 1 7.24557 2.36964 4.8076 4.80761C2.36963 7.24558 1 10.5522 1 14C1 17.4478 2.36963 20.7544 4.8076 23.1924C7.24557 25.6304 10.5522 27 14 27C15.8374 26.9994 17.6534 26.6054 19.3259 25.8444C19.3866 25.8141 19.4354 25.7644 19.4647 25.7032C19.494 25.6421 19.502 25.5729 19.4876 25.5066C19.4731 25.4403 19.437 25.3807 19.3849 25.3373C19.3328 25.2938 19.2677 25.269 19.1999 25.2667Z" stroke="#464958" stroke-width="1.5" stroke-linecap="round" stroke-linejoin="round"/>
</svg>
