<svg width="40" height="41" viewBox="0 0 40 41" fill="none" xmlns="http://www.w3.org/2000/svg">
<g clip-path="url(#clip0_501_1023)">
<path d="M27.5 24.8927C27.1685 24.8927 26.8505 24.761 26.6161 24.5265C26.3817 24.2921 26.25 23.9742 26.25 23.6427V19.591C26.2981 18.0086 25.7785 16.4611 24.785 15.2285C23.7916 13.9958 22.3898 13.1593 20.8333 12.8702V11.1427C20.8333 10.9216 20.7455 10.7097 20.5892 10.5534C20.433 10.3971 20.221 10.3093 20 10.3093C19.779 10.3093 19.567 10.3971 19.4107 10.5534C19.2545 10.7097 19.1667 10.9216 19.1667 11.1427V12.8702C17.6101 13.1593 16.2084 13.9958 15.215 15.2285C14.2215 16.4611 13.7019 18.0086 13.75 19.591V23.6427C13.75 23.9742 13.6183 24.2921 13.3839 24.5265C13.1495 24.761 12.8315 24.8927 12.5 24.8927C12.279 24.8927 12.067 24.9805 11.9107 25.1367C11.7545 25.293 11.6667 25.505 11.6667 25.726C11.6667 25.947 11.7545 26.159 11.9107 26.3152C12.067 26.4715 12.279 26.5593 12.5 26.5593H27.5C27.721 26.5593 27.933 26.4715 28.0892 26.3152C28.2455 26.159 28.3333 25.947 28.3333 25.726C28.3333 25.505 28.2455 25.293 28.0892 25.1367C27.933 24.9805 27.721 24.8927 27.5 24.8927Z" fill="white"/>
<path d="M21.8633 27.8093H18.1366C18.0855 27.8094 18.0361 27.8283 17.998 27.8624C17.9599 27.8966 17.9357 27.9435 17.93 27.9943C17.9209 28.0712 17.9164 28.1486 17.9166 28.226C17.9166 28.7785 18.1361 29.3084 18.5268 29.6991C18.9175 30.0898 19.4474 30.3093 20 30.3093C20.5525 30.3093 21.0824 30.0898 21.4731 29.6991C21.8638 29.3084 22.0833 28.7785 22.0833 28.226C22.0835 28.1486 22.079 28.0712 22.07 27.9943C22.0646 27.9434 22.0405 27.8962 22.0023 27.862C21.9641 27.8278 21.9145 27.809 21.8633 27.8093Z" fill="white"/>
</g>
<circle cx="29" cy="13.3093" r="8" fill="#F26526"/>
<defs>
<clipPath id="clip0_501_1023">
<rect width="20" height="20" fill="white" transform="translate(10 10.3093)"/>
</clipPath>
</defs>
</svg>
