<svg width="16" height="16" viewBox="0 0 16 16" fill="none" xmlns="http://www.w3.org/2000/svg">
<path fill-rule="evenodd" clip-rule="evenodd" d="M3.19995 7.13609C3.19995 4.52531 5.32523 2.40002 7.93601 2.40002C10.5468 2.40002 12.6721 4.52531 12.677 7.13609C12.677 7.43333 12.6473 7.73305 12.5928 8.02534C12.5903 8.04268 12.5804 8.09469 12.5606 8.18387C12.4888 8.50588 12.3823 8.81798 12.2436 9.1177C11.7333 10.3191 10.6087 12.1644 8.14904 14.1411C8.08711 14.1906 8.0128 14.2154 7.93849 14.2154C7.86418 14.2154 7.78987 14.1906 7.72794 14.1411C5.26579 12.1644 4.1437 10.3191 3.63343 9.1177C3.49472 8.81798 3.3882 8.5034 3.31637 8.18387C3.29655 8.09469 3.28665 8.04268 3.28417 8.02534C3.2272 7.73305 3.19995 7.43333 3.19995 7.13609ZM7.93603 4.18103C6.2789 4.18103 4.92892 5.53101 4.92892 7.18813C4.92892 8.84526 6.2789 10.1952 7.93603 10.1952C9.59315 10.1952 10.9431 8.84526 10.9431 7.18813C10.9431 5.53101 9.59315 4.18103 7.93603 4.18103Z" fill="black"/>
<mask id="mask0" mask-type="alpha" maskUnits="userSpaceOnUse" x="3" y="2" width="10" height="13">
<path fill-rule="evenodd" clip-rule="evenodd" d="M3.19995 7.13609C3.19995 4.52531 5.32523 2.40002 7.93601 2.40002C10.5468 2.40002 12.6721 4.52531 12.677 7.13609C12.677 7.43333 12.6473 7.73305 12.5928 8.02534C12.5903 8.04268 12.5804 8.09469 12.5606 8.18387C12.4888 8.50588 12.3823 8.81798 12.2436 9.1177C11.7333 10.3191 10.6087 12.1644 8.14904 14.1411C8.08711 14.1906 8.0128 14.2154 7.93849 14.2154C7.86418 14.2154 7.78987 14.1906 7.72794 14.1411C5.26579 12.1644 4.1437 10.3191 3.63343 9.1177C3.49472 8.81798 3.3882 8.5034 3.31637 8.18387C3.29655 8.09469 3.28665 8.04268 3.28417 8.02534C3.2272 7.73305 3.19995 7.43333 3.19995 7.13609ZM7.93603 4.18103C6.2789 4.18103 4.92892 5.53101 4.92892 7.18813C4.92892 8.84526 6.2789 10.1952 7.93603 10.1952C9.59315 10.1952 10.9431 8.84526 10.9431 7.18813C10.9431 5.53101 9.59315 4.18103 7.93603 4.18103Z" fill="white"/>
</mask>
<g mask="url(#mask0)">
<rect width="16" height="16" fill="#464958"/>
</g>
</svg>
