<svg width="40" height="41" viewBox="0 0 40 41" fill="none" xmlns="http://www.w3.org/2000/svg">
<g clip-path="url(#clip0_501_1017)">
<path d="M22.425 10.3841H16.5375C16.2468 10.3776 15.963 10.4727 15.7348 10.6529C15.5067 10.8332 15.3485 11.0873 15.2875 11.3716L11.95 28.4841C11.863 28.8486 11.9231 29.2327 12.1173 29.5533C12.3115 29.8738 12.6241 30.1049 12.9875 30.1966C13.2945 30.2699 13.6173 30.2353 13.9018 30.0988C14.1863 29.9622 14.4152 29.7319 14.55 29.4466L17.3625 23.7216H20.6625C21.6393 23.7316 22.6083 23.5468 23.5128 23.178C24.4174 22.8092 25.2393 22.2637 25.9306 21.5736C26.6219 20.8834 27.1687 20.0624 27.5391 19.1585C27.9094 18.2546 28.0959 17.2859 28.0875 16.3091C28.0875 12.8091 26.25 10.3841 22.425 10.3841ZM23.0625 12.3716C22.9625 12.5966 21.6375 15.5216 21.525 15.7841L23.375 15.6841C23.8125 15.6841 23.85 16.1216 23.6 16.3466C23.35 16.5716 19.425 21.5591 19.1 21.8091C19.0331 21.8887 18.94 21.9419 18.8375 21.9591C18.7821 21.9667 18.7256 21.9618 18.6723 21.9448C18.619 21.9278 18.5702 21.899 18.5294 21.8607C18.4887 21.8223 18.457 21.7753 18.4368 21.7231C18.4165 21.671 18.4082 21.6149 18.4125 21.5591C18.4125 21.4591 19.9125 18.1716 20.0375 17.9091C19.8375 17.9091 18.375 18.0341 18.025 18.0216C17.9481 18.0187 17.8737 17.9937 17.8107 17.9495C17.7477 17.9054 17.6988 17.844 17.6698 17.7728C17.6407 17.7016 17.6329 17.6235 17.6471 17.5479C17.6613 17.4723 17.6971 17.4024 17.75 17.3466C18 17.0841 22.4 11.9841 22.5 11.9341C22.5647 11.8744 22.6495 11.8412 22.7375 11.8412C22.8255 11.8412 22.9103 11.8744 22.975 11.9341C23.0329 11.9891 23.0724 12.0607 23.088 12.139C23.1037 12.2173 23.0948 12.2985 23.0625 12.3716Z" fill="white"/>
</g>
<circle cx="30" cy="12.3093" r="7" fill="#F26526"/>
<defs>
<clipPath id="clip0_501_1017">
<rect width="20" height="20" fill="white" transform="translate(10 10.3093)"/>
</clipPath>
</defs>
</svg>
