<svg width="65" height="64" viewBox="0 0 65 64" fill="none" xmlns="http://www.w3.org/2000/svg">
<path d="M4.93122 44.338C5.27 44.5711 5.67244 44.6942 6.08372 44.6904C6.3959 44.6835 6.70423 44.62 6.99372 44.5029L23.5237 38.4415C23.7485 38.3588 23.9448 38.2134 24.0893 38.0224C24.2338 37.8314 24.3204 37.6029 24.3387 37.3642L25.0187 28.5731C25.0429 28.2518 24.9419 27.9335 24.7369 27.6848C24.532 27.4361 24.2388 27.2761 23.9187 27.2384C18.7452 26.3337 13.4204 27.4041 8.99872 30.2379C7.27704 31.6162 5.91478 33.3909 5.02838 35.4102C4.14199 37.4295 3.75782 39.6333 3.90872 41.8334C3.85757 42.3029 3.92428 42.7778 4.10281 43.2151C4.28133 43.6524 4.56605 44.0383 4.93122 44.338ZM40.3912 31.5576L41.3087 43.4131C41.3238 43.6079 41.3844 43.7964 41.4856 43.9635C41.5867 44.1306 41.7257 44.2717 41.8912 44.3755C44.263 45.9639 47.0374 46.8455 49.8912 46.9175C51.7546 46.8631 53.5874 46.4294 55.2775 45.6429C56.9676 44.8564 58.4796 43.7337 59.7212 42.3433C60.0881 42.0456 60.3748 41.6611 60.5556 41.2247C60.7363 40.7882 60.8053 40.3136 60.7562 39.8437C60.6826 39.4901 60.5213 39.1605 60.2872 38.8854C60.0531 38.6102 59.7536 38.3983 59.4162 38.269L42.1662 30.3228C41.9682 30.2315 41.7498 30.1935 41.5326 30.2126C41.3154 30.2318 41.107 30.3074 40.9281 30.432C40.7492 30.5565 40.6059 30.7257 40.5126 30.9228C40.4193 31.1198 40.3792 31.3378 40.3962 31.5551L40.3912 31.5576ZM27.9162 21.5068C28.0145 21.5612 28.1258 21.5878 28.2381 21.5838C28.3504 21.5799 28.4595 21.5455 28.5537 21.4843C30.2046 20.43 32.2026 20.0632 34.1204 20.4626C36.0382 20.862 37.7236 21.9958 38.8162 23.6215C38.8803 23.7177 38.9699 23.7941 39.075 23.8423C39.1801 23.8904 39.2965 23.9084 39.4112 23.8941C39.5259 23.8798 39.6344 23.8339 39.7245 23.7615C39.8145 23.689 39.8827 23.593 39.9212 23.484C41.6742 19.3663 41.9081 14.7602 40.5812 10.4862C39.718 8.50512 38.4243 6.74121 36.794 5.32262C35.1637 3.90402 33.2378 2.86637 31.1562 2.28506C30.7309 2.07956 30.2612 1.98252 29.7893 2.00258C29.3173 2.02265 28.8576 2.15919 28.4512 2.40004C28.1644 2.61398 27.9355 2.89611 27.7854 3.22085C27.6352 3.54559 27.5685 3.90268 27.5912 4.25973V20.9544C27.5899 21.0674 27.6195 21.1785 27.6768 21.2759C27.7341 21.3732 27.8168 21.4531 27.9162 21.5068Z" fill="#F58025"/>
<path d="M60.0922 57.0011H41.0097C40.694 57.002 40.3897 56.8835 40.1578 56.6693C39.9259 56.4551 39.7837 56.1611 39.7597 55.8463L37.5922 27.796C37.5992 26.4702 37.0791 25.1959 36.1463 24.2534C35.2136 23.311 33.9446 22.7776 32.6185 22.7706C31.2924 22.7637 30.0179 23.2837 29.0753 24.2163C28.1326 25.1489 27.5992 26.4177 27.5922 27.7436L25.4197 55.8463C25.3957 56.1611 25.2535 56.4551 25.0216 56.6693C24.7898 56.8835 24.4854 57.002 24.1697 57.0011H5.09222C4.42918 57.0011 3.7933 57.2645 3.32446 57.7332C2.85562 58.202 2.59222 58.8378 2.59222 59.5007C2.59222 60.1636 2.85562 60.7994 3.32446 61.2682C3.7933 61.7369 4.42918 62.0003 5.09222 62.0003H60.0922C60.7553 62.0003 61.3911 61.7369 61.86 61.2682C62.3288 60.7994 62.5922 60.1636 62.5922 59.5007C62.5922 58.8378 62.3288 58.202 61.86 57.7332C61.3911 57.2645 60.7553 57.0011 60.0922 57.0011Z" fill="#F58025"/>
<path d="M4.93122 44.338C5.27 44.5711 5.67244 44.6942 6.08372 44.6904C6.3959 44.6835 6.70423 44.62 6.99372 44.5029L23.5237 38.4415C23.7485 38.3588 23.9448 38.2134 24.0893 38.0224C24.2338 37.8314 24.3204 37.6029 24.3387 37.3642L25.0187 28.5731C25.0429 28.2518 24.9419 27.9335 24.7369 27.6848C24.532 27.4361 24.2388 27.2761 23.9187 27.2384C18.7452 26.3337 13.4204 27.4041 8.99872 30.2379C7.27704 31.6162 5.91478 33.3909 5.02838 35.4102C4.14199 37.4295 3.75782 39.6333 3.90872 41.8334C3.85757 42.3029 3.92428 42.7778 4.10281 43.2151C4.28133 43.6524 4.56605 44.0383 4.93122 44.338ZM40.3912 31.5576L41.3087 43.4131C41.3238 43.6079 41.3844 43.7964 41.4856 43.9635C41.5867 44.1306 41.7257 44.2717 41.8912 44.3755C44.263 45.9639 47.0374 46.8455 49.8912 46.9175C51.7546 46.8631 53.5874 46.4294 55.2775 45.6429C56.9676 44.8564 58.4796 43.7337 59.7212 42.3433C60.0881 42.0456 60.3748 41.6611 60.5556 41.2247C60.7363 40.7882 60.8053 40.3136 60.7562 39.8437C60.6826 39.4901 60.5213 39.1605 60.2872 38.8854C60.0531 38.6102 59.7536 38.3983 59.4162 38.269L42.1662 30.3228C41.9682 30.2315 41.7498 30.1935 41.5326 30.2126C41.3154 30.2318 41.107 30.3074 40.9281 30.432C40.7492 30.5565 40.6059 30.7257 40.5126 30.9228C40.4193 31.1198 40.3792 31.3378 40.3962 31.5551L40.3912 31.5576ZM27.9162 21.5068C28.0145 21.5612 28.1258 21.5878 28.2381 21.5838C28.3504 21.5799 28.4595 21.5455 28.5537 21.4843C30.2046 20.43 32.2026 20.0632 34.1204 20.4626C36.0382 20.862 37.7236 21.9958 38.8162 23.6215C38.8803 23.7177 38.9699 23.7941 39.075 23.8423C39.1801 23.8904 39.2965 23.9084 39.4112 23.8941C39.5259 23.8798 39.6344 23.8339 39.7245 23.7615C39.8145 23.689 39.8827 23.593 39.9212 23.484C41.6742 19.3663 41.9081 14.7602 40.5812 10.4862C39.718 8.50512 38.4243 6.74121 36.794 5.32262C35.1637 3.90402 33.2378 2.86637 31.1562 2.28506C30.7309 2.07956 30.2612 1.98252 29.7893 2.00258C29.3173 2.02265 28.8576 2.15919 28.4512 2.40004C28.1644 2.61398 27.9355 2.89611 27.7854 3.22085C27.6352 3.54559 27.5685 3.90268 27.5912 4.25973V20.9544C27.5899 21.0674 27.6195 21.1785 27.6768 21.2759C27.7341 21.3732 27.8168 21.4531 27.9162 21.5068Z" stroke="#F58025"/>
<path d="M60.0922 57.0011H41.0097C40.694 57.002 40.3897 56.8835 40.1578 56.6693C39.9259 56.4551 39.7837 56.1611 39.7597 55.8463L37.5922 27.796C37.5992 26.4702 37.0791 25.1959 36.1463 24.2534C35.2136 23.311 33.9446 22.7776 32.6185 22.7706C31.2924 22.7637 30.0179 23.2837 29.0753 24.2163C28.1326 25.1489 27.5992 26.4177 27.5922 27.7436L25.4197 55.8463C25.3957 56.1611 25.2535 56.4551 25.0216 56.6693C24.7898 56.8835 24.4854 57.002 24.1697 57.0011H5.09222C4.42918 57.0011 3.7933 57.2645 3.32446 57.7332C2.85562 58.202 2.59222 58.8378 2.59222 59.5007C2.59222 60.1636 2.85562 60.7994 3.32446 61.2682C3.7933 61.7369 4.42918 62.0003 5.09222 62.0003H60.0922C60.7553 62.0003 61.3911 61.7369 61.86 61.2682C62.3288 60.7994 62.5922 60.1636 62.5922 59.5007C62.5922 58.8378 62.3288 58.202 61.86 57.7332C61.3911 57.2645 60.7553 57.0011 60.0922 57.0011Z" stroke="#F58025"/>
</svg>
