<svg width="120" height="120" viewBox="0 0 120 120" fill="none" xmlns="http://www.w3.org/2000/svg">
<circle cx="60" cy="57" r="34" stroke="white" stroke-width="2"/>
<g filter="url(#filter0_d_507_987)">
<circle cx="60" cy="57" r="30" fill="#D1CCCA"/>
</g>
<g clip-path="url(#clip0_507_987)">
<mask id="mask0_507_987" style="mask-type:alpha" maskUnits="userSpaceOnUse" x="52" y="51" width="17" height="12">
<path d="M67.297 51.2888C67.6898 50.9005 68.323 50.9042 68.7112 51.297C69.0696 51.6596 69.094 52.227 68.7867 52.6175L68.703 52.7112L58.586 62.7112C58.2221 63.071 57.652 63.094 57.2616 62.7836L57.168 62.6991L52.2849 57.7044C51.8989 57.3095 51.906 56.6764 52.3009 56.2903C52.6655 55.9339 53.233 55.9126 53.6218 56.222L53.7151 56.3062L57.895 60.581L67.297 51.2888Z" fill="white"/>
</mask>
<g mask="url(#mask0_507_987)">
<path d="M35 32H85V82H35V32Z" fill="white"/>
</g>
</g>
<defs>
<filter id="filter0_d_507_987" x="0" y="0" width="120" height="120" filterUnits="userSpaceOnUse" color-interpolation-filters="sRGB">
<feFlood flood-opacity="0" result="BackgroundImageFix"/>
<feColorMatrix in="SourceAlpha" type="matrix" values="0 0 0 0 0 0 0 0 0 0 0 0 0 0 0 0 0 0 127 0" result="hardAlpha"/>
<feOffset dy="3"/>
<feGaussianBlur stdDeviation="15"/>
<feColorMatrix type="matrix" values="0 0 0 0 0 0 0 0 0 0 0 0 0 0 0 0 0 0 0.15 0"/>
<feBlend mode="normal" in2="BackgroundImageFix" result="effect1_dropShadow_507_987"/>
<feBlend mode="normal" in="SourceGraphic" in2="effect1_dropShadow_507_987" result="shape"/>
</filter>
<clipPath id="clip0_507_987">
<rect width="18" height="18" fill="white" transform="translate(51 48)"/>
</clipPath>
</defs>
</svg>
